<svg width="453" height="367" viewBox="0 0 453 367" fill="none" xmlns="http://www.w3.org/2000/svg">
<path d="M128.792 23.0784C125.12 21.0703 123.446 22.7437 122.098 21.0703C120.75 19.3969 125.78 15.0556 115.749 10.7047C115.749 10.7047 115.079 1.34314 101.405 1.00846C87.7309 0.673774 91.336 10.37 87.6736 12.7128C84.0112 15.0556 82.988 11.3741 79.3065 13.669C75.625 15.964 77.308 20.6878 74.2958 21.3189C71.2837 21.9501 67.277 18.3068 63.5955 20.6496C59.914 22.9924 59.9427 25.0865 58.2406 25.0865C56.5385 25.0865 53.2203 23.7478 51.2122 25.0865C49.2041 26.4252 46.8709 28.0891 46.8709 28.0891H131.46C131.46 28.0891 132.464 25.0865 128.792 23.0784Z" stroke="#263238" stroke-width="0.656622" stroke-linecap="round" stroke-linejoin="round"/>
<path d="M78.7424 21.7017C78.2645 21.9763 77.7657 22.2129 77.2507 22.4093" stroke="#263238" stroke-width="0.656622" stroke-linecap="round" stroke-linejoin="round"/>
<path d="M96.8439 6.08606C96.0142 6.4587 95.2849 7.02327 94.7163 7.7332C94.1477 8.44314 93.756 9.27809 93.5736 10.1692C92.9616 13.2292 91.5368 15.2659 89.9016 15.4667C88.2665 15.6676 82.1466 15.0651 81.133 17.3027C80.8601 17.9626 80.6675 18.6528 80.5592 19.3586" stroke="#263238" stroke-width="0.656622" stroke-linecap="round" stroke-linejoin="round"/>
<path d="M377.414 70.0775C374.545 68.5189 373.254 69.8193 372.221 68.5188C371.189 67.2184 375.09 63.8428 367.278 60.4673C367.278 60.4673 366.761 53.1808 356.099 52.9226C345.437 52.6644 348.306 60.1996 345.447 62.026C342.588 63.8524 341.813 60.9837 338.954 62.8006C336.095 64.6174 337.386 68.2607 335.052 68.777C332.719 69.2934 329.592 66.4438 326.733 68.2607C323.874 70.0775 323.864 71.6362 322.573 71.6362C321.283 71.6362 318.672 70.6035 317.113 71.6362C315.555 72.6689 313.738 73.979 313.738 73.979H379.498C379.498 73.979 380.282 71.6362 377.414 70.0775Z" stroke="#263238" stroke-width="0.656622" stroke-linecap="round" stroke-linejoin="round"/>
<path d="M338.514 69.0161C338.14 69.2213 337.753 69.4034 337.357 69.5612" stroke="#263238" stroke-width="0.656622" stroke-linecap="round" stroke-linejoin="round"/>
<path d="M352.551 56.8719C351.907 57.1618 351.341 57.6009 350.901 58.153C350.46 58.7051 350.157 59.3542 350.017 60.0466C349.539 62.4181 348.43 64.0055 347.149 64.168C345.867 64.3306 341.124 63.8525 340.331 65.5928C340.118 66.1049 339.971 66.6413 339.891 67.1897" stroke="#263238" stroke-width="0.656622" stroke-linecap="round" stroke-linejoin="round"/>
<path d="M331.935 68.4424H336.496" stroke="#263238" stroke-width="0.656622" stroke-linecap="round" stroke-linejoin="round"/>
<path d="M372.221 68.4424H402.955C402.955 68.4424 405.422 61.0315 396.366 56.0878C387.311 51.1441 383.189 55.2654 379.9 51.1441C376.61 47.0227 388.955 36.3224 364.246 25.6221C364.246 25.6221 362.602 2.55763 328.866 1.71614C295.129 0.874653 304.166 24.771 295.101 30.5371C286.036 36.3033 283.578 27.2477 274.513 33.0138C265.448 38.7799 269.579 50.3026 262.168 51.9473C254.757 53.592 244.87 44.5365 235.814 50.3026C226.758 56.0687 226.758 61.0124 222.637 61.0124C218.516 61.0124 210.282 57.7134 205.339 61.0124C200.395 64.3115 194.638 68.4233 194.638 68.4233H326.733" stroke="#263238" stroke-width="0.656622" stroke-linecap="round" stroke-linejoin="round"/>
<path d="M273.117 52.7026C271.935 53.367 270.708 53.9485 269.445 54.443" stroke="#263238" stroke-width="0.656622" stroke-linecap="round" stroke-linejoin="round"/>
<path d="M277.582 46.8887C277.851 45.1564 278.323 43.4617 278.988 41.8398C281.503 36.3127 296.583 37.814 300.599 37.3168C304.615 36.8195 308.134 31.7897 309.645 24.245C310.09 22.051 311.051 19.9948 312.45 18.2469C313.849 16.499 315.644 15.1099 317.687 14.1949" stroke="#263238" stroke-width="0.656622" stroke-linecap="round" stroke-linejoin="round"/>
<path d="M138.727 307.626H175.456V352.569C175.456 356.12 174.046 359.525 171.535 362.035C169.025 364.546 165.619 365.956 162.069 365.956H152.114C148.564 365.956 145.159 364.546 142.648 362.035C140.138 359.525 138.727 356.12 138.727 352.569V307.626Z" fill="#263238" stroke="#263238" stroke-width="0.956238" stroke-linecap="round" stroke-linejoin="round"/>
<path d="M381.43 307.626H418.159V352.569C418.159 356.12 416.748 359.525 414.238 362.035C411.727 364.546 408.322 365.956 404.772 365.956H394.817C391.267 365.956 387.861 364.546 385.351 362.035C382.84 359.525 381.43 356.12 381.43 352.569V307.626Z" fill="#263238" stroke="#263238" stroke-width="0.956238" stroke-linecap="round" stroke-linejoin="round"/>
<path d="M432.082 186.499C429.299 183.248 418.14 181.852 412.555 181.383C406.971 180.915 405.584 186.03 405.584 190.687C405.584 195.344 406.541 202.306 405.584 204.17L404.628 206.025L393.956 178.132L369.907 130.014C368.617 127.385 366.473 125.271 363.825 124.018C362.546 123.428 361.21 122.97 359.838 122.651L274.675 120.519C272.291 120.461 269.907 120.461 267.523 120.519L191.903 122.651C190.82 123.178 189.943 124.049 189.408 125.128C189.408 125.128 160.577 183.248 157.326 191.615C154.075 199.982 152.21 206.915 152.21 206.915C151.613 206.397 151.137 205.755 150.816 205.032C150.495 204.31 150.338 203.526 150.355 202.736C150.355 199.944 150.355 184.567 149.399 182.272C148.442 179.977 132.186 182.272 125.225 186.461C118.264 190.649 122.433 198.548 128.476 201.808C132.698 203.881 137.272 205.143 141.959 205.528L148.012 214.354C148.012 214.354 140.104 222.731 139.177 225.513C138.249 228.296 134.52 258.026 134.52 267.368C134.52 276.71 135.916 308.276 138.239 312.933C140.563 317.59 146.607 323.241 149.829 324.13C153.052 325.02 283.272 328.778 283.272 328.778L402.802 325.985C402.802 325.985 413.502 329.237 417.681 307.817C421.859 286.397 420.932 268.296 420.932 256.18C420.932 244.064 419.976 227.349 418.149 223.668C416.323 219.986 410.71 215.301 409.782 213.905C408.855 212.509 412.106 203.673 412.106 203.673C412.106 203.673 428.84 202.277 432.091 199.953C435.342 197.63 434.874 189.75 432.082 186.499Z" fill="#00AFF5" stroke="#263238" stroke-width="0.956238" stroke-linecap="round" stroke-linejoin="round"/>
<path d="M190.316 184.061C190.316 184.061 176.604 196.616 226.328 201.799C276.052 206.982 329.602 216.028 341.077 221.163L352.494 226.307L376.457 214.89C376.457 214.89 364.982 201.799 334.173 196.616C303.363 191.433 245.118 188.058 225.161 181.211C205.205 174.365 190.316 178.352 190.316 184.061Z" fill="white"/>
<path d="M217.923 275.888L222.809 291.637" stroke="#263238" stroke-width="0.956238" stroke-linecap="round" stroke-linejoin="round"/>
<path d="M340.675 275.888L335.788 291.637" stroke="#263238" stroke-width="0.956238" stroke-linecap="round" stroke-linejoin="round"/>
<path d="M159.325 195.029C159.325 195.029 161.734 208.072 174.433 214.249C187.132 220.426 216.995 237.935 216.995 237.935" stroke="#263238" stroke-width="0.956238" stroke-linecap="round" stroke-linejoin="round"/>
<path d="M397.906 195.029C397.906 195.029 395.506 208.072 382.807 214.249C370.108 220.426 340.235 237.935 340.235 237.935" stroke="#263238" stroke-width="0.956238" stroke-linecap="round" stroke-linejoin="round"/>
<path d="M167.912 264.719L190.221 289.429" stroke="#263238" stroke-width="0.956238" stroke-linecap="round" stroke-linejoin="round"/>
<path d="M387.263 265.398L366.665 291.494" stroke="#263238" stroke-width="0.956238" stroke-linecap="round" stroke-linejoin="round"/>
<path d="M345.389 244.801H355.372" stroke="#263238" stroke-width="0.956238" stroke-linecap="round" stroke-linejoin="round"/>
<path d="M213.218 244.801H201.131" stroke="#263238" stroke-width="0.956238" stroke-linecap="round" stroke-linejoin="round"/>
<path d="M135.648 294.066C136.279 302.883 137.159 310.82 138.23 312.971C140.563 317.618 146.607 323.193 149.858 324.13C153.109 325.068 283.301 328.778 283.301 328.778L402.83 325.986C402.83 325.986 413.531 329.237 417.71 307.817C418.666 303.036 419.316 298.446 419.804 294.028L135.648 294.066Z" fill="#757575" stroke="#263238" stroke-width="0.956238" stroke-linecap="round" stroke-linejoin="round"/>
<path d="M231.358 307.941H220.055L206.754 326.406C243.091 327.592 283.253 328.74 283.253 328.74L351.232 327.152L337.452 307.941H326.15L278.749 308.773L231.358 307.941Z" fill="#ABABAB" stroke="#263238" stroke-width="0.956238" stroke-linecap="round" stroke-linejoin="round"/>
<path d="M188.451 131.171C188.451 131.171 166.592 188.823 166.592 190.688C166.592 192.552 298.648 190.219 298.648 190.219H388.888C388.888 190.219 391.681 188.364 390.284 181.852C388.888 175.34 366.579 132.567 366.579 132.567C366.579 132.567 284.276 129.307 259.634 129.307C234.991 129.307 188.451 131.171 188.451 131.171Z" fill="#263238" stroke="#263238" stroke-width="0.956238" stroke-linecap="round" stroke-linejoin="round"/>
<path opacity="0.2" d="M181.251 153.92L217.177 190.611H192.334L174.366 173.026L181.251 153.92Z" fill="white"/>
<path opacity="0.2" d="M254.26 132.682L387.263 180.064L381.554 165.223L305.638 132.682H254.26Z" fill="white"/>
<path d="M396.28 219.011C396.28 219.011 378.618 223.659 370.251 229.233C361.884 234.808 358.155 238.069 355.372 245.489C352.59 252.91 352.551 265.073 352.551 265.073C352.551 265.073 398.116 258.571 406.024 253.914C413.932 249.257 414.391 239.044 414.85 235.325C415.118 232.989 414.963 230.624 414.391 228.344L396.28 219.011Z" fill="white" stroke="#263238" stroke-width="0.956238" stroke-linecap="round" stroke-linejoin="round"/>
<path d="M366.56 248.358V259.795" stroke="#263238" stroke-width="0.956238" stroke-linecap="round" stroke-linejoin="round"/>
<path d="M366.56 243.539V245.805" stroke="#263238" stroke-width="0.956238" stroke-linecap="round" stroke-linejoin="round"/>
<path d="M371.839 241.502V257.758" stroke="#263238" stroke-width="0.956238" stroke-linecap="round" stroke-linejoin="round"/>
<path d="M377.127 252.728V255.712" stroke="#263238" stroke-width="0.956238" stroke-linecap="round" stroke-linejoin="round"/>
<path d="M377.127 239.465V250.366" stroke="#263238" stroke-width="0.956238" stroke-linecap="round" stroke-linejoin="round"/>
<path d="M382.405 237.428V253.675" stroke="#263238" stroke-width="0.956238" stroke-linecap="round" stroke-linejoin="round"/>
<path d="M387.683 249.448V251.638" stroke="#263238" stroke-width="0.956238" stroke-linecap="round" stroke-linejoin="round"/>
<path d="M387.683 235.391V246.895" stroke="#263238" stroke-width="0.956238" stroke-linecap="round" stroke-linejoin="round"/>
<path d="M392.971 233.355V249.601" stroke="#263238" stroke-width="0.956238" stroke-linecap="round" stroke-linejoin="round"/>
<path d="M398.25 242.888V247.564" stroke="#263238" stroke-width="0.956238" stroke-linecap="round" stroke-linejoin="round"/>
<path d="M398.25 231.308V239.79" stroke="#263238" stroke-width="0.956238" stroke-linecap="round" stroke-linejoin="round"/>
<path d="M403.538 229.272V245.528" stroke="#263238" stroke-width="0.956238" stroke-linecap="round" stroke-linejoin="round"/>
<path d="M160.214 219.011C160.214 219.011 177.885 223.659 186.252 229.233C194.619 234.808 198.339 238.069 201.131 245.489C203.923 252.91 203.923 265.016 203.923 265.016C203.923 265.016 158.359 258.513 150.451 253.857C142.542 249.2 142.083 238.987 141.615 235.267C141.352 232.931 141.511 230.567 142.083 228.287L160.214 219.011Z" fill="white" stroke="#263238" stroke-width="0.956238" stroke-linecap="round" stroke-linejoin="round"/>
<path d="M188.7 248.358V259.795" stroke="#263238" stroke-width="0.956238" stroke-linecap="round" stroke-linejoin="round"/>
<path d="M188.7 243.539V245.805" stroke="#263238" stroke-width="0.956238" stroke-linecap="round" stroke-linejoin="round"/>
<path d="M183.422 241.502V257.758" stroke="#263238" stroke-width="0.956238" stroke-linecap="round" stroke-linejoin="round"/>
<path d="M178.134 252.728V255.712" stroke="#263238" stroke-width="0.956238" stroke-linecap="round" stroke-linejoin="round"/>
<path d="M178.134 239.465V250.366" stroke="#263238" stroke-width="0.956238" stroke-linecap="round" stroke-linejoin="round"/>
<path d="M172.855 237.428V253.675" stroke="#263238" stroke-width="0.956238" stroke-linecap="round" stroke-linejoin="round"/>
<path d="M167.567 249.448V251.638" stroke="#263238" stroke-width="0.956238" stroke-linecap="round" stroke-linejoin="round"/>
<path d="M167.567 235.391V246.895" stroke="#263238" stroke-width="0.956238" stroke-linecap="round" stroke-linejoin="round"/>
<path d="M162.289 233.355V249.601" stroke="#263238" stroke-width="0.956238" stroke-linecap="round" stroke-linejoin="round"/>
<path d="M157.001 242.888V247.564" stroke="#263238" stroke-width="0.956238" stroke-linecap="round" stroke-linejoin="round"/>
<path d="M157.001 231.308V239.79" stroke="#263238" stroke-width="0.956238" stroke-linecap="round" stroke-linejoin="round"/>
<path d="M151.722 229.272V245.528" stroke="#263238" stroke-width="0.956238" stroke-linecap="round" stroke-linejoin="round"/>
<path d="M217.722 273.641C215.508 264.162 214.003 254.532 213.218 244.83L225.582 239.341L276.148 240.01L333.025 239.341L345.389 244.83C344.618 254.541 343.125 264.181 340.923 273.67L217.722 273.641ZM224.329 295.271C227.724 303.877 231.157 309.481 233.892 311.059C237.946 313.421 247.633 317.427 276.282 315.945C311.118 317.427 320.814 313.421 324.868 311.059C327.565 309.481 330.998 303.916 334.431 295.271H224.329Z" fill="#263238" stroke="#263238" stroke-width="0.956238" stroke-linecap="round" stroke-linejoin="round"/>
<path d="M345.389 244.83L333.025 239.341L276.148 240.01L225.582 239.341L213.218 244.83C213.218 244.83 213.266 245.509 213.371 246.742L253.734 252.059L259.911 255.492H298.352L304.539 252.059L345.227 246.742C345.341 245.509 345.389 244.83 345.389 244.83Z" fill="#757575" stroke="#263238" stroke-width="0.956238" stroke-linecap="round" stroke-linejoin="round"/>
<path d="M333.025 239.312L276.148 239.981L225.582 239.312L220.944 241.368H245.835L252.013 243.778H307.972L312.428 241.712H338.437L333.025 239.312Z" fill="#263238" stroke="#263238" stroke-width="0.956238" stroke-linecap="round" stroke-linejoin="round"/>
<path d="M215.284 260.254L218.716 256.132H227.638C233.179 257.55 238.813 258.582 244.497 259.221C253.772 260.254 320.365 259.221 320.365 259.221L332.375 256.477H339.164L342.597 261.966L298.658 266.747L291.113 269.491H265.056L258.534 265.714L215.284 260.254Z" fill="#757575" stroke="#263238" stroke-width="0.956238" stroke-linecap="round" stroke-linejoin="round"/>
<path d="M334.383 267.464L322.038 271.604H236.225L223.861 267.483L216.211 266.632C216.641 268.888 217.167 271.241 217.703 273.66H340.924C341.411 271.547 341.88 269.481 342.253 267.483L334.383 267.464Z" fill="#757575" stroke="#263238" stroke-width="0.956238" stroke-linecap="round" stroke-linejoin="round"/>
<path d="M192.965 316.891L196.398 310.714C192.839 305.293 187.498 301.285 181.299 299.383C170.656 295.95 158.98 294.238 155.203 295.606C151.426 296.973 150.422 306.937 151.091 309.681C151.761 312.426 154.916 314.835 154.916 314.835L192.965 316.891Z" fill="#054752"/>
<path d="M181.299 299.383C175.865 297.625 170.288 296.345 164.632 295.558C163.881 295.884 163.206 296.361 162.648 296.96C162.09 297.559 161.662 298.267 161.39 299.039C158.98 304.881 159.325 309.003 162.757 313.459C163.283 314.147 163.868 314.787 164.507 315.371L192.965 316.911L196.398 310.733C192.842 305.305 187.501 301.29 181.299 299.383Z" fill="#263238"/>
<path d="M176.833 306.077C176.833 307.469 176.42 308.829 175.647 309.987C174.874 311.144 173.774 312.046 172.488 312.579C171.202 313.112 169.787 313.251 168.422 312.979C167.057 312.708 165.803 312.038 164.819 311.053C163.834 310.069 163.164 308.815 162.892 307.45C162.621 306.085 162.76 304.669 163.293 303.383C163.826 302.097 164.728 300.998 165.885 300.225C167.042 299.452 168.403 299.039 169.795 299.039C170.72 299.038 171.636 299.219 172.49 299.572C173.344 299.925 174.121 300.444 174.775 301.097C175.428 301.751 175.947 302.528 176.3 303.382C176.653 304.236 176.834 305.152 176.833 306.077Z" fill="#ABABAB" stroke="#263238" stroke-width="0.956238" stroke-linecap="round" stroke-linejoin="round"/>
<path d="M364.753 316.891L361.32 310.714C364.892 305.289 370.246 301.281 376.457 299.383C387.091 295.95 398.766 294.238 402.544 295.606C406.321 296.973 407.325 306.937 406.665 309.681C406.005 312.426 402.888 314.835 402.888 314.835L364.753 316.891Z" fill="#054752"/>
<path d="M376.457 299.383C381.89 297.622 387.468 296.343 393.125 295.558C393.875 295.885 394.55 296.363 395.107 296.961C395.665 297.56 396.093 298.267 396.366 299.039C398.766 304.881 398.422 309.003 394.989 313.459C394.464 314.147 393.878 314.787 393.239 315.371L364.782 316.911L361.349 310.733C364.91 305.306 370.253 301.292 376.457 299.383Z" fill="#263238"/>
<path d="M394.411 308.731C395.891 305.138 394.178 301.024 390.584 299.543C386.99 298.063 382.877 299.776 381.396 303.37C379.915 306.964 381.629 311.077 385.223 312.558C388.816 314.039 392.93 312.325 394.411 308.731Z" fill="#ABABAB" stroke="#263238" stroke-width="0.956238" stroke-linecap="round" stroke-linejoin="round"/>
<path d="M189.876 130.837H195.375C195.375 130.837 197.067 123.55 202.393 121.867H206.696C206.696 121.867 203.264 117.793 198.09 118.482C192.917 119.17 189.876 123.282 189.876 130.837Z" fill="white" stroke="#263238" stroke-width="0.956238" stroke-linecap="round" stroke-linejoin="round"/>
<path d="M202.25 118.912C193.539 121.131 195.375 130.837 195.375 130.837C195.375 130.837 197.067 123.55 202.393 121.867H206.696C205.476 120.536 203.95 119.522 202.25 118.912Z" fill="#263238" stroke="#263238" stroke-width="0.956238" stroke-linecap="round" stroke-linejoin="round"/>
<path d="M365.987 130.837H360.488C360.488 130.837 358.796 123.55 353.46 121.867H349.157C349.157 121.867 352.59 117.793 357.763 118.482C362.936 119.17 365.987 123.282 365.987 130.837Z" fill="white" stroke="#263238" stroke-width="0.956238" stroke-linecap="round" stroke-linejoin="round"/>
<path d="M353.613 118.912C362.324 121.131 360.488 130.837 360.488 130.837C360.488 130.837 358.796 123.55 353.46 121.867H349.157C350.382 120.537 351.911 119.523 353.613 118.912Z" fill="#263238" stroke="#263238" stroke-width="0.956238" stroke-linecap="round" stroke-linejoin="round"/>
<path d="M183.517 114.829C183.517 114.829 190.211 115.719 193.587 121.523C196.962 127.328 206.84 148.91 206.84 148.91C206.84 148.91 216.766 141.556 220.447 140.103C224.129 138.649 230.344 142.015 231.76 147.169C233.175 152.324 231.76 155.479 228.049 159.543C224.339 163.607 206.486 179.165 201.896 180.217C197.306 181.269 193.759 179.519 192.171 173.686C190.584 167.853 181.567 116.426 181.567 116.426C181.567 116.426 180.859 114.304 183.517 114.829Z" fill="white" stroke="#263238" stroke-width="0.956238" stroke-miterlimit="10"/>
<path d="M118.962 216.65C118.879 218.589 119.124 220.529 119.688 222.387C120.568 224.577 122.318 228.23 122.318 230.123C122.318 232.016 122.901 236.549 122.031 237.132C121.161 237.716 120.712 235.526 120.568 234.646C120.346 233.75 120.052 232.874 119.688 232.026C119.688 232.026 120.425 237.859 120.425 239.905C120.425 241.952 123.781 241.952 122.758 243.73C121.735 245.509 119.985 244.457 117.795 243.73C115.605 243.004 112.536 241.244 112.536 235.698C112.536 230.152 112.689 217.893 112.689 217.893L118.962 216.65Z" fill="white" stroke="#263238" stroke-width="0.956238" stroke-miterlimit="10"/>
<path d="M111.58 210.224L111.235 216.095C111.172 217.177 111.517 218.243 112.202 219.083C112.887 219.922 113.863 220.474 114.936 220.628C116.051 220.788 117.185 220.507 118.095 219.845C119.006 219.182 119.623 218.19 119.813 217.08L120.846 211.094L111.58 210.224Z" fill="white" stroke="#263238" stroke-width="0.956238" stroke-miterlimit="10"/>
<path d="M127.137 117.478C127.137 117.478 120.836 117.87 117.652 125.128C116.504 127.738 105.775 206.188 106.645 209.086C107.515 211.983 115.328 215.167 119.076 214.01C122.825 212.853 124.575 210.826 125.158 208.502C125.741 206.179 129.786 120.787 129.786 120.787C129.848 120.393 129.827 119.99 129.725 119.605C129.623 119.219 129.441 118.859 129.192 118.548C128.943 118.237 128.631 117.981 128.277 117.796C127.924 117.612 127.535 117.504 127.137 117.478Z" fill="white" stroke="#263238" stroke-width="0.956238" stroke-miterlimit="10"/>
<path d="M122.28 189.091C122.28 189.091 122.567 197.487 122.863 202.115C123.159 206.743 136.757 328.921 135.887 334.133C135.017 339.344 132.416 340.501 133.018 343.973C133.621 347.444 135.332 354.979 135.332 354.979H152.698C152.698 354.979 156.465 350.351 155.882 346.87C155.299 343.389 152.411 336.743 152.411 333.846C152.411 330.949 155.012 225.571 155.012 225.571L159.353 226.145C159.353 226.145 167.175 339.058 166.592 341.372C166.008 343.686 164.278 345.713 164.278 346.87C164.278 348.027 168.332 355.553 168.332 355.553L188.021 352.368C188.021 352.368 188.882 339.344 188.308 336.743C187.734 334.142 184.837 331.236 184.837 331.236L188.021 250.759L191.492 199.514L190.335 189.091H122.28Z" fill="#263238" stroke="#263238" stroke-width="0.956238" stroke-miterlimit="10"/>
<path d="M190.316 189.091H122.28C122.28 189.091 122.356 191.204 122.461 193.872H190.852L190.316 189.091Z" fill="#757575" stroke="#263238" stroke-width="0.956238" stroke-linecap="round" stroke-linejoin="round"/>
<path d="M133.066 190.65H129.987V195.785H133.066V190.65Z" fill="#263238" stroke="#263238" stroke-width="0.956238" stroke-miterlimit="10"/>
<path d="M180.849 190.65H177.77V195.785H180.849V190.65Z" fill="#263238" stroke="#263238" stroke-width="0.956238" stroke-miterlimit="10"/>
<path d="M161.524 189.32H151.847V193.623H161.524V189.32Z" fill="white" stroke="#263238" stroke-width="0.956238" stroke-miterlimit="10"/>
<path d="M147.285 108.824C147.285 108.824 128.017 115.719 127.138 117.43C126.258 119.142 120.444 175.397 119.717 178.056C118.99 180.714 117.594 185.122 118.828 187.245C119.7 188.634 120.841 189.834 122.184 190.774H190.402C190.402 190.774 194.466 188.66 195.183 185.122C195.581 182.485 195.581 179.804 195.183 177.167L183.527 114.782L171.325 110L155.566 108.824H147.285Z" fill="white" stroke="#263238" stroke-width="0.956238" stroke-miterlimit="10"/>
<path d="M131.747 174.766L170.484 150.421" stroke="#263238" stroke-width="0.956238" stroke-linecap="round" stroke-linejoin="round"/>
<path d="M124.881 179.079L127.262 177.587" stroke="#263238" stroke-width="0.956238" stroke-linecap="round" stroke-linejoin="round"/>
<path d="M140.515 164.315L168.313 145.64" stroke="#263238" stroke-width="0.956238" stroke-linecap="round" stroke-linejoin="round"/>
<path d="M150.288 116.598L155.585 124.726L149.762 175.981L156.647 187.647L165.31 174.919L158.062 124.908L164.249 117.306L156.829 109.35L150.288 116.598Z" fill="#263238" stroke="#263238" stroke-width="0.956238" stroke-miterlimit="10"/>
<path d="M148.873 95.9245L149.762 107.055C149.762 107.055 153.826 113.596 156.829 113.596C159.831 113.596 167.252 107.237 167.252 107.237V95.0352C167.252 95.0352 159.477 100.514 156.121 99.6347C153.532 98.7686 151.089 97.5178 148.873 95.9245Z" fill="white" stroke="#263238" stroke-width="0.956238" stroke-miterlimit="10"/>
<path d="M156.121 99.6347C153.532 98.7686 151.089 97.5178 148.873 95.9245L149.676 106.003C151.684 107.983 159.181 107.916 160.73 106.873C162.279 105.831 165.511 100.6 167.252 96.8233V95.0352C167.252 95.0352 159.477 100.514 156.121 99.6347Z" fill="#263238" stroke="#263238" stroke-width="0.956238" stroke-miterlimit="10"/>
<path d="M154.878 112.888L148.165 124.554L142.514 109.704L148.701 102.637L154.878 112.888Z" fill="white" stroke="#263238" stroke-width="0.956238" stroke-miterlimit="10"/>
<path d="M160.003 112.363L165.311 124.908L172.731 110.24L167.787 103.517L160.003 112.363Z" fill="white" stroke="#263238" stroke-width="0.956238" stroke-miterlimit="10"/>
<path d="M172.473 75.3655C172.473 75.3655 175.284 70.5843 176.766 75.0309C177.286 76.7695 177.247 78.6274 176.655 80.3428C176.063 82.0582 174.948 83.5448 173.467 84.5932C171.65 85.5495 171.153 83.2736 171.153 83.2736L172.473 75.3655Z" fill="white" stroke="#263238" stroke-width="0.956238" stroke-miterlimit="10"/>
<path d="M142.916 75.8626C142.916 75.8626 141.424 71.5691 139.091 74.3709C136.757 77.1726 140.41 82.977 141.567 84.2775C142.724 85.578 144.044 85.1094 144.379 84.1149C144.713 83.1204 142.916 75.8626 142.916 75.8626Z" fill="white" stroke="#263238" stroke-width="0.956238" stroke-miterlimit="10"/>
<path d="M142.102 57.4075C142.102 57.4075 140.429 63.5465 140.706 65.7746C140.984 68.0026 143.499 85.0236 144.331 89.2119C145.162 93.4002 150.192 98.6978 151.311 101.213C152.43 103.728 161.074 103.718 162.786 102.609C164.498 101.5 168.648 94.5095 170.044 90.8853C171.44 87.2612 172.779 74.3998 172.779 70.7948C172.779 67.1898 175.848 62.1887 175.571 58.5263C175.293 54.8639 168.036 50.1496 164.412 48.7535C160.787 47.3574 159.114 47.9216 157.163 45.9709C155.212 44.0201 152.382 40.9411 147.668 42.6145C142.954 44.2879 147.668 48.4762 145.44 49.0404C143.212 49.6046 134.835 42.0599 133.162 49.8723C131.488 57.6848 142.102 57.4075 142.102 57.4075Z" fill="white" stroke="#263238" stroke-width="0.956238" stroke-miterlimit="10"/>
<path d="M175.581 58.4973C175.303 54.8636 168.045 50.1207 164.421 48.7246C160.797 47.3285 159.124 47.8927 157.173 45.9419C155.222 43.9912 152.392 40.9121 147.678 42.5855C142.963 44.259 147.678 48.4473 145.449 49.0115C143.221 49.5756 134.845 42.0309 133.171 49.8434C131.498 57.6558 142.103 57.3785 142.103 57.3785C142.103 57.3785 140.429 63.5176 140.707 65.7456C140.84 66.7975 141.462 71.1101 142.17 75.8244L142.418 76.0252C142.418 76.0252 143.241 74.8681 142.418 70.9093C141.596 66.9505 143.738 67.6007 143.738 65.7839C143.738 63.967 145.057 59.3484 146.874 58.6886C148.691 58.0288 151.99 61.1652 154.801 60.1708C157.613 59.1763 161.409 55.5426 165.043 57.1969C168.677 58.8511 166.688 65.803 167.357 66.7592C168.026 67.7155 170.159 68.2414 170.159 71.8751C170.159 75.5088 169.499 78.8174 170.818 79.3051C171.047 79.3738 171.289 79.3808 171.521 79.3254C171.753 79.2699 171.966 79.1541 172.138 78.9895C172.54 75.5184 172.788 72.2958 172.788 70.7467C172.779 67.1417 175.858 62.1215 175.581 58.4973Z" fill="#263238" stroke="#263238" stroke-width="0.956238" stroke-miterlimit="10"/>
<path d="M153.424 89.1926C153.424 89.1926 158.206 91.5927 162.078 87.7487" stroke="#263238" stroke-width="0.956238" stroke-linecap="round" stroke-linejoin="round"/>
<path d="M151.502 69.4177L153.319 73.2427C153.319 73.2427 152.162 85.7981 152.65 86.1232C153.138 86.4483 160.3 84.8036 160.3 83.3214C160.322 82.4748 160.029 81.65 159.477 81.0073" stroke="#263238" stroke-width="0.956238" stroke-linecap="round" stroke-linejoin="round"/>
<path d="M150.164 65.1338C150.164 65.1338 143.556 65.1338 143.556 65.7936C143.556 66.4534 144.216 66.7498 145.21 66.6255C146.205 66.5012 149.332 66.4534 149.991 66.2908C150.651 66.1283 150.164 65.1338 150.164 65.1338Z" fill="#263238" stroke="#263238" stroke-width="0.956238" stroke-linecap="round" stroke-linejoin="round"/>
<path d="M163.886 64.2729C163.886 64.2729 157.278 64.273 157.278 64.9328C157.278 65.5926 157.938 65.889 158.932 65.7647C159.927 65.6404 163.063 65.5926 163.714 65.43C164.364 65.2674 163.886 64.2729 163.886 64.2729Z" fill="#263238" stroke="#263238" stroke-width="0.956238" stroke-linecap="round" stroke-linejoin="round"/>
<path d="M161.572 74.8681C161.572 75.8722 161.17 76.685 160.663 76.685C160.156 76.685 159.707 75.8722 159.707 74.8681C159.707 73.8641 160.118 73.0513 160.663 73.0513C161.208 73.0513 161.572 73.8641 161.572 74.8681Z" fill="#263238"/>
<path d="M150.011 74.8681C150.011 75.8722 149.609 76.685 149.102 76.685C148.595 76.685 148.146 75.8722 148.146 74.8681C148.146 73.8641 148.557 73.0513 149.102 73.0513C149.647 73.0513 150.011 73.8641 150.011 74.8681Z" fill="#263238"/>
<path d="M206.84 148.938C206.84 148.938 198.186 156.187 196.063 160.786L206.84 148.938Z" fill="white"/>
<path d="M206.84 148.938C206.84 148.938 198.186 156.187 196.063 160.786" stroke="#263238" stroke-width="0.956238" stroke-miterlimit="10"/>
<path d="M202.776 152.649C202.776 152.649 196.771 155.661 193.405 159.543L202.776 152.649Z" fill="white"/>
<path d="M202.776 152.649C202.776 152.649 196.771 155.661 193.405 159.543" stroke="#263238" stroke-width="0.956238" stroke-miterlimit="10"/>
<path d="M251.381 140.992C251.381 140.992 256.325 139.577 257.387 137.454C258.448 135.331 258.266 133.916 257.033 134.977C255.799 136.039 254.384 136.89 253.848 137.454C253.313 138.018 251.381 140.992 251.381 140.992Z" fill="white" stroke="#263238" stroke-width="0.956238" stroke-miterlimit="10"/>
<path d="M226.462 137.1L223.086 142.226C222.583 142.982 222.347 143.886 222.417 144.792C222.486 145.698 222.856 146.555 223.469 147.227C223.853 147.644 224.319 147.976 224.839 148.204C225.358 148.432 225.919 148.549 226.486 148.549C227.053 148.549 227.614 148.432 228.133 148.204C228.652 147.976 229.119 147.644 229.503 147.227L236.531 139.701C236.531 139.701 250.674 141.824 251.381 140.944C252.089 140.064 254.384 138.468 254.91 136.699C255.436 134.929 256.153 132.807 255.264 133.342C254.374 133.878 253.351 136.211 253.351 136.211L240.452 127.901C240.452 127.901 245.042 125.032 245.395 122.776C245.749 120.519 244.869 119.419 243.98 120.863C243.091 122.307 241.867 123.33 239.036 124.392C236.206 125.453 232.668 126.515 231.434 128.637L226.462 137.1Z" fill="white" stroke="#263238" stroke-width="0.956238" stroke-miterlimit="10"/>
<path d="M229.503 147.294L233.395 143.124C231.757 143.013 230.196 142.392 228.93 141.347C227.664 140.302 226.757 138.887 226.337 137.301L223.086 142.245C222.506 143.102 222.271 144.147 222.43 145.169C222.59 146.192 223.13 147.117 223.944 147.757C224.757 148.397 225.783 148.705 226.814 148.619C227.846 148.533 228.806 148.059 229.503 147.294Z" fill="white" stroke="#263238" stroke-width="0.956238" stroke-miterlimit="10"/>
<path d="M233.528 136.918C233.528 136.918 237.592 132.682 240.595 133.036C243.598 133.39 248.369 139.041 248.369 139.041C248.369 139.041 254.202 132.854 254.556 134.805C254.91 136.756 249.775 140.992 248.905 141.164C248.035 141.336 235.47 139.749 235.47 139.749" fill="white"/>
<path d="M233.528 136.918C233.528 136.918 237.592 132.682 240.595 133.036C243.598 133.39 248.369 139.041 248.369 139.041C248.369 139.041 254.202 132.854 254.556 134.805C254.91 136.756 249.775 140.992 248.905 141.164C248.035 141.336 235.47 139.749 235.47 139.749" stroke="#263238" stroke-width="0.956238" stroke-miterlimit="10"/>
<path d="M152.143 354.893C152.143 354.893 143.633 348.199 141.567 347.797C139.502 347.396 136.671 350.121 135.763 351.278C134.854 352.435 134.606 353.736 134.214 353.994C133.822 354.252 129.834 357.819 128.285 359.272C126.736 360.726 126.611 364.56 127.128 365.21C127.585 365.646 128.173 365.918 128.801 365.985H154.075C154.303 364.492 154.389 362.981 154.333 361.472C153.982 359.261 153.428 357.088 152.679 354.979" fill="#757575"/>
<path d="M152.143 354.893C152.143 354.893 143.633 348.199 141.567 347.797C139.502 347.396 136.671 350.121 135.763 351.278C134.854 352.435 134.606 353.736 134.214 353.994C133.822 354.252 129.834 357.819 128.285 359.272C126.736 360.726 126.611 364.56 127.128 365.21C127.585 365.646 128.173 365.918 128.801 365.985H154.075C154.303 364.492 154.389 362.981 154.333 361.472C153.982 359.261 153.428 357.088 152.679 354.979" stroke="#263238" stroke-width="0.956238" stroke-linecap="round" stroke-linejoin="round"/>
<path d="M126.879 363.604C126.823 364.154 126.916 364.709 127.147 365.211C127.604 365.646 128.193 365.918 128.821 365.985H154.094C154.094 365.985 154.266 364.914 154.342 363.604H126.879Z" fill="#757575" stroke="#263238" stroke-width="0.956238" stroke-linecap="round" stroke-linejoin="round"/>
<path d="M168.533 354.893C168.533 354.893 179.482 348.199 181.547 347.797C183.613 347.396 186.443 350.121 187.352 351.278C188.26 352.435 188.901 355.017 189.264 355.275C189.628 355.533 194.935 357.857 196.484 359.272C198.033 360.687 198.167 364.56 197.65 365.21C197.188 365.644 196.598 365.916 195.967 365.985H166.601C166.373 364.492 166.287 362.981 166.343 361.472C166.694 359.261 167.248 357.088 167.997 354.979L168.533 354.893Z" fill="#757575" stroke="#263238" stroke-width="0.956238" stroke-linecap="round" stroke-linejoin="round"/>
<path d="M166.601 365.985H195.987C196.617 365.916 197.207 365.644 197.67 365.211C197.896 364.707 197.988 364.154 197.937 363.604H166.381C166.429 364.914 166.601 365.985 166.601 365.985Z" fill="#757575" stroke="#263238" stroke-width="0.956238" stroke-linecap="round" stroke-linejoin="round"/>
<path d="M98.0871 84.1822C99.7032 83.3981 100.602 80.2903 100.124 76.7618C99.598 72.8317 97.5708 69.8673 95.6105 70.1351C94.0614 70.3359 93.0095 72.497 92.8948 75.3179L98.0871 84.1822Z" fill="#263238" stroke="#263238" stroke-width="0.956238" stroke-linecap="round" stroke-linejoin="round"/>
<path d="M56.1177 62.1886C57.0036 61.0868 57.5465 59.7492 57.6791 58.3417C57.8117 56.9342 57.5281 55.5187 56.8636 54.2709C54.6355 49.5662 37.5667 49.8149 31.3799 58.727C25.193 67.6391 31.5137 78.0621 39.986 76.5321C46.5553 75.356 54.1096 65.8892 56.1177 62.1886Z" fill="white" stroke="#263238" stroke-width="0.956238" stroke-linecap="round" stroke-linejoin="round"/>
<path d="M31.3512 58.7174C31.4559 60.8221 31.998 62.8819 32.9431 64.7654C33.8881 66.6489 35.2153 68.3147 36.84 69.6568C42.4053 74.3136 46.7562 73.4148 46.7562 73.4148" stroke="#263238" stroke-width="0.956238" stroke-linecap="round" stroke-linejoin="round"/>
<path d="M32.776 57.484C32.776 57.484 37.4424 62.5903 41.9463 64.694C44.5674 65.9104 47.121 67.2671 49.5962 68.758" stroke="#263238" stroke-width="0.956238" stroke-linecap="round" stroke-linejoin="round"/>
<path d="M33.8279 55.9732C33.8279 55.9732 40.2921 54.3189 46.0104 55.6768C49.5296 56.6058 52.5481 58.8697 54.4253 61.9879" stroke="#263238" stroke-width="0.956238" stroke-linecap="round" stroke-linejoin="round"/>
<path d="M90.7719 63.5848C90.7719 63.5848 93.4685 68.0122 94.0422 71.2347C94.616 74.4573 94.0422 76.8192 94.9985 78.7412C95.9547 80.6632 99.7796 83.3598 99.0338 85.0906C98.2879 86.8214 95.5722 87.9593 95.5722 87.9593C95.5722 87.9593 91.5273 96.8141 89.414 99.5107C87.3008 102.207 79.211 99.5107 79.211 99.5107L79.0197 103.747L63.2418 100.878C63.2418 100.878 64.9726 98.3728 62.0848 95.2937C59.1969 92.2146 50.5334 81.8203 60.5452 71.8181C70.557 61.8158 87.5016 62.4278 90.7719 63.5848Z" fill="white" stroke="#263238" stroke-width="0.956238" stroke-linecap="round" stroke-linejoin="round"/>
<path d="M79.2205 99.5774L72.6989 98.3821L79.0292 103.814L79.2205 99.5774Z" fill="#263238" stroke="#263238" stroke-width="0.956238" stroke-linecap="round" stroke-linejoin="round"/>
<path d="M91.355 64.8563C90.1461 62.5885 88.5983 60.5184 86.7651 58.7173C81.0277 53.2667 68.2141 52.5304 57.8198 59.4536C47.4255 66.3768 40.5023 85.4346 46.4406 92.3577C52.3788 99.2809 65.7374 94.8344 65.7374 94.8344C65.7374 94.8344 63.2608 84.9373 66.4833 83.9429C69.7058 82.9484 72.6702 84.1915 73.177 81.973C73.6838 79.7545 72.9283 74.0554 77.8817 70.8328C82.835 67.6103 89.2513 69.0447 91.355 64.8563Z" fill="white" stroke="#263238" stroke-width="0.956238" stroke-linecap="round" stroke-linejoin="round"/>
<path d="M65.2498 90.8755C65.2498 90.8755 61.0423 94.1841 52.8187 91.478C44.595 88.7718 45.0062 80.5004 45.0062 80.5004" stroke="#263238" stroke-width="0.956238" stroke-linecap="round" stroke-linejoin="round"/>
<path d="M46.6127 75.2223C46.5755 77.2966 47.1956 79.3296 48.3842 81.03C49.5728 82.7305 51.269 84.0113 53.2298 84.689C60.2869 87.3952 63.9014 85.7409 63.9014 85.7409" stroke="#263238" stroke-width="0.956238" stroke-linecap="round" stroke-linejoin="round"/>
<path d="M48.4106 70.8616C49.2071 73.1359 50.5383 75.1856 52.2923 76.838C54.0463 78.4905 56.1716 79.6974 58.4893 80.357C60.3628 80.961 62.2813 81.4151 64.2268 81.7149" stroke="#263238" stroke-width="0.956238" stroke-linecap="round" stroke-linejoin="round"/>
<path d="M50.0648 67.8496C54.0706 70.3831 58.2987 72.5468 62.6967 74.3138C69.3139 76.8765 75.3286 72.9655 75.3286 72.9655" stroke="#263238" stroke-width="0.956238" stroke-linecap="round" stroke-linejoin="round"/>
<path d="M53.3734 63.948C53.3734 63.948 54.5783 66.3482 66.9042 64.9999C79.2301 63.6516 85.0727 65.3154 86.1437 67.706" stroke="#263238" stroke-width="0.956238" stroke-linecap="round" stroke-linejoin="round"/>
<path d="M55.7831 61.0888C59.5173 60.264 63.1838 59.158 66.7512 57.7802C74.2672 55.0741 86.0385 56.6041 91.3552 64.8564" stroke="#263238" stroke-width="0.956238" stroke-linecap="round" stroke-linejoin="round"/>
<path d="M69.1992 85.6835C69.1992 85.6835 67.4684 78.9899 63.4618 78.9899C59.4551 78.9899 60.7461 87.1561 63.7104 90.3691C66.6747 93.582 68.4629 91.8321 68.4629 91.8321" fill="white"/>
<path d="M69.1992 85.6835C69.1992 85.6835 67.4684 78.9899 63.4618 78.9899C59.4551 78.9899 60.7461 87.1561 63.7104 90.3691C66.6747 93.582 68.4629 91.8321 68.4629 91.8321" stroke="#263238" stroke-width="0.956238" stroke-linecap="round" stroke-linejoin="round"/>
<path d="M82.3187 88.3989C82.3187 88.3989 84.7858 92.6064 89.0124 91.6214" stroke="#263238" stroke-width="0.956238" stroke-linecap="round" stroke-linejoin="round"/>
<path d="M93.1888 78.9683C93.8077 75.0561 91.138 71.3829 87.2258 70.764C83.3136 70.1451 79.6404 72.8148 79.0214 76.727C78.4025 80.6392 81.0722 84.3124 84.9844 84.9313C88.8966 85.5503 92.5699 82.8806 93.1888 78.9683Z" fill="#263238" stroke="#263238" stroke-width="0.956238" stroke-linecap="round" stroke-linejoin="round"/>
<path d="M79.842 78.2535L67.2197 81.2274" stroke="#263238" stroke-width="0.956238" stroke-linecap="round" stroke-linejoin="round"/>
<path d="M92.6174 76.6471L95.5818 75.9012" stroke="#263238" stroke-width="0.956238" stroke-linecap="round" stroke-linejoin="round"/>
<path d="M68.4629 333.081V348.916H54.607V332.833L68.4629 333.081Z" fill="white" stroke="#263238" stroke-width="0.956238" stroke-linecap="round" stroke-linejoin="round"/>
<path d="M80.8269 334.812L80.5783 344.709L88.0083 347.673L92.7034 344.709V333.33L80.8269 334.812Z" fill="white" stroke="#263238" stroke-width="0.956238" stroke-linecap="round" stroke-linejoin="round"/>
<path d="M93.6979 121.303C93.6979 121.303 101.587 125.836 102.763 131.717C103.939 137.598 106.292 159.132 109.026 165.788C111.761 172.443 112.947 176.756 111.379 178.716C110.684 179.671 110.188 180.755 109.918 181.904C109.649 183.054 109.612 184.246 109.81 185.41C110.203 186.978 113.731 188.154 112.163 191.29C110.595 194.427 108.644 197.554 108.644 197.554V239.466C108.644 243.386 103.939 248.072 102.763 249.258C101.587 250.443 99.6265 246.131 99.6265 242.994C99.6265 239.858 98.8424 167.786 97.7141 162.307C96.5857 156.828 89.8729 122.346 89.8729 122.346C89.8729 122.346 90.8961 119.123 93.6979 121.303Z" fill="#00AFF5" stroke="#263238" stroke-width="0.956238" stroke-linecap="round" stroke-linejoin="round"/>
<path d="M102.763 249.219C103.939 248.053 108.644 243.348 108.644 239.427V203.999C105.491 204.581 102.269 204.7 99.0815 204.352C99.4067 223.152 99.5979 241.416 99.5979 242.956C99.6266 246.092 101.587 250.395 102.763 249.219Z" fill="white" stroke="#263238" stroke-width="0.956238" stroke-linecap="round" stroke-linejoin="round"/>
<path d="M46.192 221.746L53.8419 338.025L69.1417 337.776L79.0675 219.767L80.5592 220.015L79.8133 337.527L93.2007 337.04L107.057 226.661C107.057 226.661 104.083 201.426 101.319 195.488C99.5915 191.799 97.3367 188.382 94.6254 185.342H54.8555C54.8555 185.342 48.1714 196.511 46.192 221.746Z" fill="#263238" stroke="#263238" stroke-width="0.956238" stroke-linecap="round" stroke-linejoin="round"/>
<path d="M78.8476 112.401C78.8476 112.401 86.7653 117.593 88.496 122.049C90.2268 126.505 96.6623 187.857 96.6623 188.842C96.6623 189.827 84.7858 189.588 77.8627 189.799C70.9395 190.009 68.4629 190.047 68.4629 190.047C68.4629 190.047 59.3117 129.68 57.5713 123.493C55.831 117.306 57.5713 114.839 59.5507 112.86C61.5301 110.88 64.7527 110.383 66.2444 109.637C67.7361 108.891 78.8476 112.401 78.8476 112.401Z" fill="white" stroke="#263238" stroke-width="0.956238" stroke-linecap="round" stroke-linejoin="round"/>
<path d="M81.5728 116.36C81.5728 116.36 87.511 129.47 90.724 159.39C92.6365 177.654 92.2062 227.675 92.2062 227.675C93.0838 228.424 94.1644 228.895 95.3104 229.028C96.4564 229.16 97.616 228.949 98.6416 228.421C102.522 226.957 106.488 225.731 110.518 224.749C110.518 224.749 105.813 192.581 105.574 181.451C105.335 170.32 100.124 138.152 97.6567 129.001C95.1896 119.85 94.1856 118.616 90.4754 116.388C86.7652 114.16 81.0756 113.414 81.0756 113.414L81.5728 116.36Z" fill="#00AFF5" stroke="#263238" stroke-width="0.956238" stroke-linecap="round" stroke-linejoin="round"/>
<path d="M82.0701 115.365C82.0701 115.365 83.5522 108.442 83.3036 105.716C83.055 102.991 82.2996 102.771 76.3613 102.523C70.4231 102.274 63.5095 97.5501 61.5301 100.027C59.5507 102.503 59.063 111.655 60.2965 112.869C61.5301 114.083 66.6364 117.449 74.5636 118.176C77.3749 118.453 81.3242 117.344 82.0701 115.365Z" fill="white" stroke="#263238" stroke-width="0.956238" stroke-linecap="round" stroke-linejoin="round"/>
<path d="M59.7994 111.655C59.7994 111.655 44.4996 121.552 41.2484 125.262C37.9972 128.972 44.2127 182.416 44.4613 195.775C44.5299 204.868 44.0349 213.957 42.9792 222.99C48.0376 225.379 53.2438 227.442 58.5658 229.167C64.6655 231.07 71.1737 231.242 77.3655 229.664C77.3655 229.664 74.1525 180.437 73.6553 166.084C73.158 151.731 68.2143 126.993 66.4835 121.303C64.7527 115.614 59.7994 111.655 59.7994 111.655Z" fill="#00AFF5" stroke="#263238" stroke-width="0.956238" stroke-linecap="round" stroke-linejoin="round"/>
<path d="M59.5507 110.173C59.5507 110.173 44.9585 119.821 45.9435 121.055C46.9284 122.288 53.5934 155.202 53.5934 171.735C53.5934 188.269 54.3392 220.972 54.3392 220.972C54.3392 220.972 59.0439 220.972 62.5055 221.221C65.9671 221.469 73.3875 220.264 73.3875 220.264C73.3875 220.264 70.9108 186.127 70.9108 168.809C70.9108 151.492 64.7335 125.014 63.2609 120.806C61.7883 116.599 59.5507 110.173 59.5507 110.173Z" fill="#263238" stroke="#263238" stroke-width="0.956238" stroke-linecap="round" stroke-linejoin="round"/>
<path d="M82.3187 114.132C82.3187 114.132 88.0083 143.823 90.4754 163.12C92.9425 182.416 95.6774 205.194 95.6774 208.885V218.285C95.6774 218.285 100.372 219.031 102.103 219.031C103.546 218.925 104.964 218.603 106.311 218.075C106.311 218.075 102.601 185.17 101.616 170.081C100.631 154.992 95.4287 126.544 93.698 121.313L91.9672 116.121C91.9672 116.121 85.7612 112.869 82.3187 114.132Z" fill="#263238" stroke="#263238" stroke-width="0.956238" stroke-linecap="round" stroke-linejoin="round"/>
<path d="M46.192 287.067L9.855 277.419C9.855 277.419 7.12972 289.046 4.66263 293.742C2.19554 298.437 0.426499 306.603 1.17236 310.81C1.91823 315.018 6.36473 317.743 9.82631 318.977C13.2879 320.21 39.7661 327.879 46.4407 327.392C53.1152 326.904 54.0905 321.453 53.3734 316.749C52.6562 312.044 46.192 287.067 46.192 287.067Z" fill="#263238" stroke="#263238" stroke-width="0.956238" stroke-linecap="round" stroke-linejoin="round"/>
<path d="M53.3732 316.749C52.6274 312.054 46.1919 287.105 46.1919 287.105L43.9352 286.503C43.5335 288.53 38.4942 313.842 37.7866 320.249C37.4136 323.557 38.322 325.527 39.8712 326.77C42.0309 327.225 44.2334 327.446 46.4405 327.43C53.1246 326.894 54.1095 321.453 53.3732 316.749Z" fill="#4C4C4C" stroke="#263238" stroke-width="0.956238" stroke-linecap="round" stroke-linejoin="round"/>
<path d="M26.1588 240.049L16.0418 284.112C15.9628 284.451 15.765 284.75 15.4843 284.955C15.2035 285.161 14.8585 285.258 14.5118 285.231C14.3017 285.212 14.0983 285.147 13.9158 285.041C13.7333 284.935 13.576 284.79 13.455 284.617C13.334 284.444 13.252 284.247 13.2149 284.039C13.1778 283.832 13.1864 283.618 13.24 283.414L25.6711 236.558L37.299 238.538L42.0801 289.486C42.0993 289.714 42.0645 289.943 41.9787 290.154C41.8928 290.366 41.7583 290.555 41.586 290.705C41.4137 290.854 41.2084 290.962 40.9869 291.018C40.7654 291.073 40.5339 291.076 40.3111 291.026L40.1007 290.978C39.7968 290.908 39.5235 290.742 39.3218 290.504C39.1202 290.266 39.0009 289.97 38.9819 289.658L36.1132 240.756L26.1588 240.049Z" fill="#263238" stroke="#263238" stroke-width="0.956238" stroke-linecap="round" stroke-linejoin="round"/>
<path d="M44.2127 122.786C44.2127 122.786 33.828 126.257 32.3363 129.967C30.8445 133.677 29.1233 162.871 28.387 169.794C27.6507 176.717 27.6507 178.458 27.6507 178.458C27.6507 178.458 21.4638 181.422 22.4583 185.381C23.4528 189.34 27.1534 192.801 27.1534 193.796C27.1534 194.79 28.6356 225.457 28.6356 225.457C28.6356 225.457 23.9405 240.307 24.9254 241.541C25.9103 242.774 29.6301 244.266 30.1273 245.002C30.6246 245.739 33.3403 248.464 34.5739 247.479C35.2911 246.915 35.8048 246.133 36.0369 245.251L36.7732 242.535C36.7732 242.535 39.7471 245.499 40.4834 245.499C41.2197 245.499 39.2499 239.81 39.2499 236.1C39.2499 232.389 36.0369 227.188 36.0369 226.203C36.0369 225.218 39.269 196.062 39.269 196.062C39.269 196.062 44.2127 191.855 44.71 188.412C45.2072 184.97 43.9641 180.982 44.4613 179.749C44.9586 178.515 46.6894 175.79 46.938 173.313C47.1866 170.836 45.2072 167.136 44.9586 165.156C44.71 163.177 46.6894 135.714 46.6894 135.714" fill="#00AFF5"/>
<path d="M44.2127 122.786C44.2127 122.786 33.828 126.257 32.3363 129.967C30.8445 133.677 29.1233 162.871 28.387 169.794C27.6507 176.717 27.6507 178.458 27.6507 178.458C27.6507 178.458 21.4638 181.422 22.4583 185.381C23.4528 189.34 27.1534 192.801 27.1534 193.796C27.1534 194.79 28.6356 225.457 28.6356 225.457C28.6356 225.457 23.9405 240.307 24.9254 241.541C25.9103 242.774 29.6301 244.266 30.1273 245.002C30.6246 245.739 33.3403 248.464 34.5739 247.479C35.2911 246.915 35.8049 246.133 36.0369 245.251L36.7732 242.535C36.7732 242.535 39.7471 245.499 40.4834 245.499C41.2197 245.499 39.2499 239.81 39.2499 236.1C39.2499 232.389 36.0369 227.188 36.0369 226.203C36.0369 225.218 39.269 196.062 39.269 196.062C39.269 196.062 44.2127 191.855 44.71 188.412C45.2072 184.97 43.9641 180.982 44.4613 179.749C44.9586 178.515 46.6894 175.79 46.938 173.313C47.1866 170.836 45.2072 167.136 44.9586 165.156C44.71 163.177 46.6894 135.714 46.6894 135.714" stroke="#263238" stroke-width="0.956238" stroke-linecap="round" stroke-linejoin="round"/>
<path d="M30.1176 245.002C30.6053 245.748 33.3306 248.464 34.5641 247.479C35.285 246.917 35.8021 246.134 36.0367 245.251L36.773 242.535C36.773 242.535 39.7469 245.499 40.4832 245.499C41.2195 245.499 39.2497 239.81 39.2497 236.099C39.2497 232.389 36.0367 227.187 36.0367 226.202C36.0367 225.533 37.4998 211.983 38.456 203.253L27.5071 202.411C27.947 211.801 28.6068 225.447 28.6068 225.447C28.6068 225.447 23.9116 240.297 24.8966 241.531C25.8815 242.764 29.6204 244.266 30.1176 245.002Z" fill="white" stroke="#263238" stroke-width="0.956238" stroke-linecap="round" stroke-linejoin="round"/>
<path d="M66.2348 347.922C66.2348 347.922 57.3322 346.44 55.8405 346.44C54.3487 346.44 47.9228 356.586 46.9379 360.535C45.953 364.484 48.9173 365.976 49.6536 365.976H69.1991C69.1991 365.976 72.173 365.976 72.4216 361.271C72.6703 356.567 70.6908 349.892 70.6908 348.161C70.6908 346.43 71.9244 344.202 71.4271 342.969C70.9299 341.735 66.4834 340.999 66.2348 347.922Z" fill="#00AFF5" stroke="#263238" stroke-width="0.956238" stroke-linecap="round" stroke-linejoin="round"/>
<path d="M72.4215 361.281C72.467 359.903 72.3966 358.525 72.2112 357.159C71.1593 358.393 70.3752 360.716 68.96 361.778C66.9806 363.26 62.0272 362.734 61.0423 362.524C60.0574 362.313 57.5712 357.57 56.3376 356.834C55.1041 356.098 52.3788 361.778 52.3788 361.778H46.7466C46.6248 362.709 46.8499 363.653 47.379 364.428C47.908 365.204 48.704 365.759 49.6153 365.985H69.199C69.199 365.985 72.1729 365.985 72.4215 361.281Z" fill="white" stroke="#263238" stroke-width="0.956238" stroke-linecap="round" stroke-linejoin="round"/>
<path d="M55.2382 348.237C55.2382 348.237 53.5743 337.002 54.8174 336.514C56.0605 336.026 67.1624 334.879 67.6597 337.346C68.1569 339.813 66.2636 348.515 66.2636 348.515L55.2382 348.237Z" fill="white" stroke="#263238" stroke-width="0.956238" stroke-linecap="round" stroke-linejoin="round"/>
<path d="M57.8677 336.629L57.7147 340.96L63.7486 341.266L64.2171 336.629C62.1267 336.159 59.9581 336.159 57.8677 336.629Z" fill="#00AFF5" stroke="#263238" stroke-width="0.956238" stroke-linecap="round" stroke-linejoin="round"/>
<path d="M67.3439 350.198L54.6069 349.777C54.493 349.774 54.3808 349.749 54.2767 349.703C54.1726 349.657 54.0787 349.591 54.0004 349.508C53.9221 349.425 53.861 349.328 53.8207 349.221C53.7804 349.115 53.7616 349.001 53.7654 348.888C53.7651 348.772 53.7886 348.658 53.8345 348.552C53.8803 348.446 53.9474 348.35 54.0318 348.271C54.1161 348.192 54.2158 348.132 54.3246 348.093C54.4334 348.054 54.549 348.038 54.6642 348.046L67.4013 348.457C67.6321 348.457 67.8534 348.549 68.0166 348.712C68.1798 348.875 68.2715 349.097 68.2715 349.328C68.2715 349.558 68.1798 349.78 68.0166 349.943C67.8534 350.106 67.6321 350.198 67.4013 350.198H67.3439Z" fill="white" stroke="#263238" stroke-width="0.956238" stroke-linecap="round" stroke-linejoin="round"/>
<path d="M66.5791 352.187L53.842 351.766C53.6129 351.758 53.396 351.661 53.2384 351.494C53.0809 351.328 52.9954 351.106 53.0005 350.877C52.9988 350.761 53.0214 350.646 53.0667 350.539C53.112 350.432 53.1792 350.336 53.2638 350.257C53.3484 350.178 53.4487 350.117 53.5582 350.079C53.6676 350.041 53.7838 350.026 53.8994 350.035L66.6365 350.446C66.8673 350.446 67.0886 350.538 67.2518 350.701C67.415 350.864 67.5067 351.086 67.5067 351.317C67.5067 351.547 67.415 351.769 67.2518 351.932C67.0886 352.095 66.8673 352.187 66.6365 352.187H66.5791Z" fill="white" stroke="#263238" stroke-width="0.956238" stroke-linecap="round" stroke-linejoin="round"/>
<path d="M65.1063 354.023L54.712 353.602C54.5029 353.571 54.314 353.46 54.1855 353.292C54.0569 353.124 53.9988 352.913 54.0235 352.703C54.0235 352.225 54.3582 351.814 54.7598 351.871L65.1541 352.283C65.3622 352.316 65.5496 352.427 65.6777 352.595C65.8058 352.762 65.8648 352.972 65.8426 353.181C65.8557 353.39 65.7857 353.596 65.6478 353.754C65.5099 353.911 65.3152 354.008 65.1063 354.023Z" fill="white" stroke="#263238" stroke-width="0.956238" stroke-linecap="round" stroke-linejoin="round"/>
<path d="M88.257 344.958C88.257 344.958 80.0907 341.247 78.3599 342.978C76.6291 344.709 76.1319 345.694 77.4037 346.44C78.6755 347.186 80.3776 348.171 80.3776 348.171C80.3776 348.171 77.6523 360.783 78.6468 362.514C79.4126 363.702 80.4232 364.713 81.6111 365.478H115.749C115.749 365.478 117.728 364.522 115.997 361.022C114.267 357.523 107.343 355.83 104.618 354.099C101.893 352.368 96.7006 345.933 96.4519 345.197C96.2033 344.46 97.695 337.767 95.9643 337.03C94.2335 336.294 88.7829 337.03 89.0315 339.01C89.3032 340.609 89.7192 342.181 90.2746 343.705L88.257 344.958Z" fill="#00AFF5" stroke="#263238" stroke-width="0.956238" stroke-linecap="round" stroke-linejoin="round"/>
<path d="M95.7634 353.889C96.1172 354.396 96.6336 354.702 96.9204 354.577L102.371 352.263C101.836 351.747 101.281 351.173 100.745 350.59L95.6391 352.751C95.3235 352.885 95.4096 353.382 95.7634 353.889Z" fill="white" stroke="#263238" stroke-width="0.956238" stroke-linecap="round" stroke-linejoin="round"/>
<path d="M92.6938 350.016C93.038 350.523 93.65 350.81 93.956 350.647L98.8806 348.496C98.3356 347.845 97.8479 347.243 97.4558 346.736L92.6746 348.821C92.3017 348.916 92.34 349.49 92.6938 350.016Z" fill="white" stroke="#263238" stroke-width="0.956238" stroke-linecap="round" stroke-linejoin="round"/>
<path d="M93.65 351.144C93.2675 351.259 93.3058 351.833 93.65 352.34C93.9943 352.846 94.6063 353.124 94.9123 352.971L100.65 350.465C100.124 349.892 99.6074 349.308 99.1293 348.754L93.65 351.144Z" fill="white" stroke="#263238" stroke-width="0.956238" stroke-linecap="round" stroke-linejoin="round"/>
<path d="M97.169 346.268C96.9204 345.531 98.7181 336.552 96.9873 335.816C95.2565 335.08 89.2609 337.04 88.9932 339.019C88.7445 340.836 90.2363 343.715 90.2363 343.715L92.952 348.668C92.952 348.668 96.6718 347.014 97.169 346.268Z" fill="white" stroke="#263238" stroke-width="0.956238" stroke-linecap="round" stroke-linejoin="round"/>
<path d="M92.2347 336.782L93.3153 339.88L96.1075 338.924L95.486 335.978C95.486 335.978 93.0093 335.672 92.2347 336.782Z" fill="#00AFF5" stroke="#263238" stroke-width="0.956238" stroke-linecap="round" stroke-linejoin="round"/>
<path d="M115.959 361.032C115.547 360.286 114.984 359.635 114.305 359.12C114.275 359.185 114.25 359.252 114.228 359.32C113.731 361.051 114.477 362.782 113.492 363.776C112.507 364.771 107.554 364.522 103.595 364.025C99.6363 363.528 92.7035 361.3 88.0084 359.569C84.9121 358.584 81.6052 358.465 78.446 359.225C78.3246 360.331 78.3665 361.449 78.5703 362.543C78.666 363.296 79.0091 363.995 79.5457 364.532C80.0823 365.068 80.7819 365.412 81.5347 365.507H115.672C115.672 365.507 117.69 364.503 115.959 361.032Z" fill="white" stroke="#263238" stroke-width="0.956238" stroke-linecap="round" stroke-linejoin="round"/>
<path d="M6.39331 365.985H452" stroke="#263238" stroke-width="0.868521" stroke-linecap="round" stroke-linejoin="round"/>
</svg>
