<svg width="341" height="321" viewBox="0 0 341 321" fill="none" xmlns="http://www.w3.org/2000/svg">
<path d="M323.412 175.201C326.8 189.831 336.277 202.335 338.763 217.326C342.15 237.577 340.24 258.333 335.988 278.26C335.232 281.827 327.052 319.735 321.719 319.735C321.539 319.735 11.1027 319.735 11.1027 319.735C11.1027 319.735 8.94066 314.114 8.21997 305.249C7.13894 291.881 17.4808 274.224 20.7599 261.396C24.9399 244.964 26.4894 229.866 22.3454 213.254C14.7062 182.661 -4.96861 153.184 1.94999 120.754C7.71549 93.7638 30.8135 74.0891 54.7403 63.3869C64.6858 58.9547 75.424 59.279 85.4416 55.4954C93.225 52.5405 100.144 47.0633 106.63 41.9464C121.007 30.5236 134.052 16.6864 150.195 7.67777C178.987 -8.39355 218.048 3.38969 244.245 18.9926C274.55 37.0458 300.314 64.7562 313.791 97.5474C319.124 110.556 319.917 123.853 320.277 137.221C320.602 149.869 320.494 162.589 323.412 175.201Z" fill="#00AFF5"/>
<path opacity="0.7" d="M323.412 175.201C326.8 189.831 336.277 202.335 338.763 217.326C342.15 237.577 340.24 258.333 335.988 278.26C335.232 281.827 327.052 319.735 321.719 319.735C321.539 319.735 11.1027 319.735 11.1027 319.735C11.1027 319.735 8.94066 314.114 8.21997 305.249C7.13894 291.881 17.4808 274.224 20.7599 261.396C24.9399 244.964 26.4894 229.866 22.3454 213.254C14.7062 182.661 -4.96861 153.184 1.94999 120.754C7.71549 93.7638 30.8135 74.0891 54.7403 63.3869C64.6858 58.9547 75.424 59.279 85.4416 55.4954C93.225 52.5405 100.144 47.0633 106.63 41.9464C121.007 30.5236 134.052 16.6864 150.195 7.67777C178.987 -8.39355 218.048 3.38969 244.245 18.9926C274.55 37.0458 300.314 64.7562 313.791 97.5474C319.124 110.556 319.917 123.853 320.277 137.221C320.602 149.869 320.494 162.589 323.412 175.201Z" fill="white"/>
<g opacity="0.3">
<path d="M137.727 210.731H131.457V204.389H137.727V210.731Z" stroke="black" stroke-width="0.720687"/>
<path d="M124.647 208.209H127.205V210.731H124.647V208.209Z" stroke="black" stroke-width="0.720687"/>
<path d="M8.07584 109.115V292.277" stroke="black" stroke-width="0.720687"/>
<path d="M8.07584 103.962V81.296H23.5706V75.3143H52.4341V80.9356H62.0553" stroke="black" stroke-width="0.720687"/>
<path d="M307.017 225.433V268.963H292.351V108.358H242.083V229.83H223.705V216.389H228.498V210.695H188.32V129.186H190.914V124.934H142.124V129.186H145.619V210.84H107.062V269.215H86.8109V90.8091H73.5863V80.9357H66.4155" stroke="black" stroke-width="0.720687"/>
<path d="M307.017 221.109V194.12H305.071V188.895H335.556" stroke="black" stroke-width="0.720687"/>
<path d="M294.369 108.358H239.849V106.592H294.369V108.358Z" stroke="black" stroke-width="0.720687"/>
<path d="M156.105 140.5H149.979V133.942H156.105V140.5Z" stroke="black" stroke-width="0.720687"/>
<path d="M165.114 140.5H158.988V133.942H165.114V140.5Z" stroke="black" stroke-width="0.720687"/>
<path d="M174.122 140.5H167.996V133.942H174.122V140.5Z" stroke="black" stroke-width="0.720687"/>
<path d="M183.131 140.5H177.005V133.942H183.131V140.5Z" stroke="black" stroke-width="0.720687"/>
<path d="M156.105 150.95H149.979V144.356H156.105V150.95Z" stroke="black" stroke-width="0.720687"/>
<path d="M165.114 150.95H158.988V144.356H165.114V150.95Z" stroke="black" stroke-width="0.720687"/>
<path d="M174.122 150.95H167.996V144.356H174.122V150.95Z" stroke="black" stroke-width="0.720687"/>
<path d="M183.131 150.95H177.005V144.356H183.131V150.95Z" stroke="black" stroke-width="0.720687"/>
<path d="M156.105 161.364H149.979V154.77H156.105V161.364Z" stroke="black" stroke-width="0.720687"/>
<path d="M165.114 161.364H158.988V154.77H165.114V161.364Z" stroke="black" stroke-width="0.720687"/>
<path d="M174.122 161.364H167.996V154.77H174.122V161.364Z" stroke="black" stroke-width="0.720687"/>
<path d="M183.131 161.364H177.005V154.77H183.131V161.364Z" stroke="black" stroke-width="0.720687"/>
<path d="M156.105 171.778H149.979V165.22H156.105V171.778Z" stroke="black" stroke-width="0.720687"/>
<path d="M165.114 171.778H158.988V165.22H165.114V171.778Z" stroke="black" stroke-width="0.720687"/>
<path d="M174.122 171.778H167.996V165.22H174.122V171.778Z" stroke="black" stroke-width="0.720687"/>
<path d="M183.131 171.778H177.005V165.22H183.131V171.778Z" stroke="black" stroke-width="0.720687"/>
<path d="M156.105 182.192H149.979V175.634H156.105V182.192Z" stroke="black" stroke-width="0.720687"/>
<path d="M165.114 182.192H158.988V175.634H165.114V182.192Z" stroke="black" stroke-width="0.720687"/>
<path d="M174.122 182.192H167.996V175.634H174.122V182.192Z" stroke="black" stroke-width="0.720687"/>
<path d="M183.131 182.192H177.005V175.634H183.131V182.192Z" stroke="black" stroke-width="0.720687"/>
<path d="M156.105 192.642H149.979V186.048H156.105V192.642Z" stroke="black" stroke-width="0.720687"/>
<path d="M165.114 192.642H158.988V186.048H165.114V192.642Z" stroke="black" stroke-width="0.720687"/>
<path d="M174.122 192.642H167.996V186.048H174.122V192.642Z" stroke="black" stroke-width="0.720687"/>
<path d="M183.131 192.642H177.005V186.048H183.131V192.642Z" stroke="black" stroke-width="0.720687"/>
<path d="M156.105 203.056H149.979V196.462H156.105V203.056Z" stroke="black" stroke-width="0.720687"/>
<path d="M165.114 203.056H158.988V196.462H165.114V203.056Z" stroke="black" stroke-width="0.720687"/>
<path d="M174.122 203.056H167.996V196.462H174.122V203.056Z" stroke="black" stroke-width="0.720687"/>
<path d="M183.131 203.056H177.005V196.462H183.131V203.056Z" stroke="black" stroke-width="0.720687"/>
<path d="M156.105 213.47H149.979V206.912H156.105V213.47Z" stroke="black" stroke-width="0.720687"/>
<path d="M165.114 213.47H158.988V206.912H165.114V213.47Z" stroke="black" stroke-width="0.720687"/>
<path d="M174.122 213.47H167.996V206.912H174.122V213.47Z" stroke="black" stroke-width="0.720687"/>
<path d="M183.131 213.47H177.005V206.912H183.131V213.47Z" stroke="black" stroke-width="0.720687"/>
<path d="M156.105 223.019H149.979V216.425H156.105V223.019Z" stroke="black" stroke-width="0.720687"/>
<path d="M165.114 223.019H158.988V216.425H165.114V223.019Z" stroke="black" stroke-width="0.720687"/>
<path d="M174.122 223.019H167.996V216.425H174.122V223.019Z" stroke="black" stroke-width="0.720687"/>
<path d="M183.131 223.019H177.005V216.425H183.131V223.019Z" stroke="black" stroke-width="0.720687"/>
<path d="M156.105 233.433H149.979V226.839H156.105V233.433Z" stroke="black" stroke-width="0.720687"/>
<path d="M165.114 233.433H158.988V226.839H165.114V233.433Z" stroke="black" stroke-width="0.720687"/>
<path d="M174.122 233.433H167.996V226.839H174.122V233.433Z" stroke="black" stroke-width="0.720687"/>
<path d="M183.131 233.433H177.005V226.839H183.131V233.433Z" stroke="black" stroke-width="0.720687"/>
<path d="M156.105 243.847H149.979V237.289H156.105V243.847Z" stroke="black" stroke-width="0.720687"/>
<path d="M165.114 243.847H158.988V237.289H165.114V243.847Z" stroke="black" stroke-width="0.720687"/>
<path d="M174.122 243.847H167.996V237.289H174.122V243.847Z" stroke="black" stroke-width="0.720687"/>
<path d="M183.131 243.847H177.005V237.289H183.131V243.847Z" stroke="black" stroke-width="0.720687"/>
<path d="M156.105 254.261H149.979V247.703H156.105V254.261Z" stroke="black" stroke-width="0.720687"/>
<path d="M165.114 254.261H158.988V247.703H165.114V254.261Z" stroke="black" stroke-width="0.720687"/>
<path d="M174.122 254.261H167.996V247.703H174.122V254.261Z" stroke="black" stroke-width="0.720687"/>
<path d="M183.131 254.261H177.005V247.703H183.131V254.261Z" stroke="black" stroke-width="0.720687"/>
<path d="M156.105 264.711H149.979V258.117H156.105V264.711Z" stroke="black" stroke-width="0.720687"/>
<path d="M165.114 264.711H158.988V258.117H165.114V264.711Z" stroke="black" stroke-width="0.720687"/>
<path d="M174.122 264.711H167.996V258.117H174.122V264.711Z" stroke="black" stroke-width="0.720687"/>
<path d="M183.131 264.711H177.005V258.117H183.131V264.711Z" stroke="black" stroke-width="0.720687"/>
<path d="M156.105 275.125H149.979V268.53H156.105V275.125Z" stroke="black" stroke-width="0.720687"/>
<path d="M165.114 275.125H158.988V268.53H165.114V275.125Z" stroke="black" stroke-width="0.720687"/>
<path d="M174.122 275.125H167.996V268.53H174.122V275.125Z" stroke="black" stroke-width="0.720687"/>
<path d="M183.131 275.125H177.005V268.53H183.131V275.125Z" stroke="black" stroke-width="0.720687"/>
<path d="M191.311 223.019H185.149V216.425H191.311V223.019Z" stroke="black" stroke-width="0.720687"/>
<path d="M200.319 223.019H194.157V216.425H200.319V223.019Z" stroke="black" stroke-width="0.720687"/>
<path d="M209.328 223.019H203.166V216.425H209.328V223.019Z" stroke="black" stroke-width="0.720687"/>
<path d="M218.336 223.019H212.174V216.425H218.336V223.019Z" stroke="black" stroke-width="0.720687"/>
<path d="M191.311 233.433H185.149V226.839H191.311V233.433Z" stroke="black" stroke-width="0.720687"/>
<path d="M200.319 233.433H194.157V226.839H200.319V233.433Z" stroke="black" stroke-width="0.720687"/>
<path d="M209.328 233.433H203.166V226.839H209.328V233.433Z" stroke="black" stroke-width="0.720687"/>
<path d="M218.336 233.433H212.174V226.839H218.336V233.433Z" stroke="black" stroke-width="0.720687"/>
<path d="M191.311 243.847H185.149V237.289H191.311V243.847Z" stroke="black" stroke-width="0.720687"/>
<path d="M200.319 243.847H194.157V237.289H200.319V243.847Z" stroke="black" stroke-width="0.720687"/>
<path d="M209.328 243.847H203.166V237.289H209.328V243.847Z" stroke="black" stroke-width="0.720687"/>
<path d="M218.336 243.847H212.174V237.289H218.336V243.847Z" stroke="black" stroke-width="0.720687"/>
<path d="M191.311 254.261H185.149V247.703H191.311V254.261Z" stroke="black" stroke-width="0.720687"/>
<path d="M200.319 254.261H194.157V247.703H200.319V254.261Z" stroke="black" stroke-width="0.720687"/>
<path d="M209.328 254.261H203.166V247.703H209.328V254.261Z" stroke="black" stroke-width="0.720687"/>
<path d="M218.336 254.261H212.174V247.703H218.336V254.261Z" stroke="black" stroke-width="0.720687"/>
<path d="M191.311 264.711H185.149V258.117H191.311V264.711Z" stroke="black" stroke-width="0.720687"/>
<path d="M200.319 264.711H194.157V258.117H200.319V264.711Z" stroke="black" stroke-width="0.720687"/>
<path d="M209.328 264.711H203.166V258.117H209.328V264.711Z" stroke="black" stroke-width="0.720687"/>
<path d="M218.336 264.711H212.174V258.117H218.336V264.711Z" stroke="black" stroke-width="0.720687"/>
<path d="M191.311 275.125H185.149V268.53H191.311V275.125Z" stroke="black" stroke-width="0.720687"/>
<path d="M200.319 275.125H194.157V268.53H200.319V275.125Z" stroke="black" stroke-width="0.720687"/>
<path d="M209.328 275.125H203.166V268.53H209.328V275.125Z" stroke="black" stroke-width="0.720687"/>
<path d="M218.336 275.125H212.174V268.53H218.336V275.125Z" stroke="black" stroke-width="0.720687"/>
<path d="M120.431 223.019H114.305V216.425H120.431V223.019Z" stroke="black" stroke-width="0.720687"/>
<path d="M129.44 223.019H123.314V216.425H129.44V223.019Z" stroke="black" stroke-width="0.720687"/>
<path d="M138.448 223.019H132.322V216.425H138.448V223.019Z" stroke="black" stroke-width="0.720687"/>
<path d="M147.457 223.019H141.331V216.425H147.457V223.019Z" stroke="black" stroke-width="0.720687"/>
<path d="M120.431 233.433H114.305V226.839H120.431V233.433Z" stroke="black" stroke-width="0.720687"/>
<path d="M129.44 233.433H123.314V226.839H129.44V233.433Z" stroke="black" stroke-width="0.720687"/>
<path d="M138.448 233.433H132.322V226.839H138.448V233.433Z" stroke="black" stroke-width="0.720687"/>
<path d="M147.457 233.433H141.331V226.839H147.457V233.433Z" stroke="black" stroke-width="0.720687"/>
<path d="M120.431 243.847H114.305V237.289H120.431V243.847Z" stroke="black" stroke-width="0.720687"/>
<path d="M129.44 243.847H123.314V237.289H129.44V243.847Z" stroke="black" stroke-width="0.720687"/>
<path d="M138.448 243.847H132.322V237.289H138.448V243.847Z" stroke="black" stroke-width="0.720687"/>
<path d="M147.457 243.847H141.331V237.289H147.457V243.847Z" stroke="black" stroke-width="0.720687"/>
<path d="M120.431 254.261H114.305V247.703H120.431V254.261Z" stroke="black" stroke-width="0.720687"/>
<path d="M129.44 254.261H123.314V247.703H129.44V254.261Z" stroke="black" stroke-width="0.720687"/>
<path d="M138.448 254.261H132.322V247.703H138.448V254.261Z" stroke="black" stroke-width="0.720687"/>
<path d="M147.457 254.261H141.331V247.703H147.457V254.261Z" stroke="black" stroke-width="0.720687"/>
<path d="M120.431 264.711H114.305V258.117H120.431V264.711Z" stroke="black" stroke-width="0.720687"/>
<path d="M129.44 264.711H123.314V258.117H129.44V264.711Z" stroke="black" stroke-width="0.720687"/>
<path d="M138.448 264.711H132.322V258.117H138.448V264.711Z" stroke="black" stroke-width="0.720687"/>
<path d="M147.457 264.711H141.331V258.117H147.457V264.711Z" stroke="black" stroke-width="0.720687"/>
<path d="M120.431 275.125H114.305V268.53H120.431V275.125Z" stroke="black" stroke-width="0.720687"/>
<path d="M129.44 275.125H123.314V268.53H129.44V275.125Z" stroke="black" stroke-width="0.720687"/>
<path d="M138.448 275.125H132.322V268.53H138.448V275.125Z" stroke="black" stroke-width="0.720687"/>
<path d="M147.457 275.125H141.331V268.53H147.457V275.125Z" stroke="black" stroke-width="0.720687"/>
<path d="M321.647 202.588H315.521V195.993H321.647V202.588Z" stroke="black" stroke-width="0.720687"/>
<path d="M330.655 202.588H324.53V195.993H330.655V202.588Z" stroke="black" stroke-width="0.720687"/>
<path d="M321.647 213.002H315.521V206.407H321.647V213.002Z" stroke="black" stroke-width="0.720687"/>
<path d="M330.655 213.002H324.53V206.407H330.655V213.002Z" stroke="black" stroke-width="0.720687"/>
<path d="M321.647 223.415H315.521V216.857H321.647V223.415Z" stroke="black" stroke-width="0.720687"/>
<path d="M330.655 223.415H324.53V216.857H330.655V223.415Z" stroke="black" stroke-width="0.720687"/>
<path d="M321.647 233.829H315.521V227.271H321.647V233.829Z" stroke="black" stroke-width="0.720687"/>
<path d="M330.655 233.829H324.53V227.271H330.655V233.829Z" stroke="black" stroke-width="0.720687"/>
<path d="M321.647 244.279H315.521V237.685H321.647V244.279Z" stroke="black" stroke-width="0.720687"/>
<path d="M330.655 244.279H324.53V237.685H330.655V244.279Z" stroke="black" stroke-width="0.720687"/>
<path d="M321.647 254.693H315.521V248.099H321.647V254.693Z" stroke="black" stroke-width="0.720687"/>
<path d="M330.655 254.693H324.53V248.099H330.655V254.693Z" stroke="black" stroke-width="0.720687"/>
<path d="M321.647 265.107H315.521V258.549H321.647V265.107Z" stroke="black" stroke-width="0.720687"/>
<path d="M330.655 265.107H324.53V258.549H330.655V265.107Z" stroke="black" stroke-width="0.720687"/>
<path d="M321.647 275.521H315.521V268.963H321.647V275.521Z" stroke="black" stroke-width="0.720687"/>
<path d="M330.655 275.521H324.53V268.963H330.655V275.521Z" stroke="black" stroke-width="0.720687"/>
<path d="M246.803 112.141V280.061" stroke="black" stroke-width="0.720687"/>
<path d="M252.893 242.874V280.062" stroke="black" stroke-width="0.720687"/>
<path d="M252.893 163.707V238.91" stroke="black" stroke-width="0.720687"/>
<path d="M252.893 112.141V158.986" stroke="black" stroke-width="0.720687"/>
<path d="M258.983 112.141V280.061" stroke="black" stroke-width="0.720687"/>
<path d="M265.073 151.851V280.061" stroke="black" stroke-width="0.720687"/>
<path d="M265.073 112.141V147.095" stroke="black" stroke-width="0.720687"/>
<path d="M271.199 112.141V280.061" stroke="black" stroke-width="0.720687"/>
<path d="M277.289 193.002V280.062" stroke="black" stroke-width="0.720687"/>
<path d="M277.289 112.141V187.057" stroke="black" stroke-width="0.720687"/>
<path d="M283.378 112.141V280.061" stroke="black" stroke-width="0.720687"/>
<path d="M289.468 112.141V280.061" stroke="black" stroke-width="0.720687"/>
<path d="M8.43618 93.9801H86.6307" stroke="black" stroke-width="0.720687"/>
<path d="M14.7782 213.182V292.998" stroke="black" stroke-width="0.720687"/>
<path d="M14.7782 98.1961V207.236" stroke="black" stroke-width="0.720687"/>
<path d="M18.2736 150.266V292.998" stroke="black" stroke-width="0.720687"/>
<path d="M18.2736 98.1961V145.509" stroke="black" stroke-width="0.720687"/>
<path d="M28.8677 98.1961V292.998" stroke="black" stroke-width="0.720687"/>
<path d="M32.363 98.1961V292.998" stroke="black" stroke-width="0.720687"/>
<path d="M42.9571 98.1961V292.998" stroke="black" stroke-width="0.720687"/>
<path d="M46.4524 127.708V292.998" stroke="black" stroke-width="0.720687"/>
<path d="M46.4524 98.1961V121.763" stroke="black" stroke-width="0.720687"/>
<path d="M57.0465 98.1961V292.998" stroke="black" stroke-width="0.720687"/>
<path d="M60.5419 284.422V292.998" stroke="black" stroke-width="0.720687"/>
<path d="M60.5419 98.1961V278.08" stroke="black" stroke-width="0.720687"/>
<path d="M71.136 98.1961V292.998" stroke="black" stroke-width="0.720687"/>
<path d="M74.6313 98.1961V292.998" stroke="black" stroke-width="0.720687"/>
</g>
<path d="M45.2633 255.774C45.2633 268.062 36.8313 272.818 26.4173 272.818C16.0034 272.818 7.57136 268.062 7.57136 255.774C7.57136 243.523 16.0034 215.956 26.4173 215.956C36.8313 215.956 45.2633 243.523 45.2633 255.774Z" fill="#9AED66"/>
<path opacity="0.6" d="M45.2633 255.774C45.2633 268.062 36.8313 272.818 26.4173 272.818C16.0034 272.818 7.57136 268.062 7.57136 255.774C7.57136 243.523 16.0034 215.956 26.4173 215.956C36.8313 215.956 45.2633 243.523 45.2633 255.774Z" fill="white"/>
<path d="M10.9586 260.855L17.8051 258.261L11.5712 255.126L24.5796 259.558L24.7958 254.981L14.1656 247.342L19.1024 250.081L20.3275 246.477L19.9672 250.657L24.9039 253.252L24.976 248.063L18.1655 237.433L25.3723 246.766L26.021 233.541L26.7056 240.892L30.237 237.289L26.9218 243.45L26.3092 259.125L27.2822 257.107L28.5073 252.387L28.8316 256.243L31.1018 253.252L32.2909 237.865L32.399 245.18L35.6061 238.874L32.6873 246.333L32.0747 252.964L37.3357 248.063L26.6335 260.999L26.8137 263.882L27.9668 263.738L30.7775 260.567L29.4082 263.45L39.1014 258.981L35.2457 261.72L37.8763 264.026L34.1287 262.152L26.7056 266.188L27.4623 320.384H23.3904L24.4715 261.287L18.8141 258.693L10.9586 260.855Z" fill="#B3B3B3"/>
<path d="M140.934 283.16C140.934 295.448 132.466 300.205 122.052 300.205C111.639 300.205 103.207 295.448 103.207 283.16C103.207 270.909 111.639 243.342 122.052 243.342C132.466 243.342 140.934 270.909 140.934 283.16Z" fill="#9AED66"/>
<path opacity="0.6" d="M140.934 283.16C140.934 295.448 132.466 300.205 122.052 300.205C111.639 300.205 103.207 295.448 103.207 283.16C103.207 270.909 111.639 243.342 122.052 243.342C132.466 243.342 140.934 270.909 140.934 283.16Z" fill="white"/>
<path d="M106.594 288.241L113.44 285.647L107.242 282.512L120.251 286.944L120.431 282.368L109.837 274.728L114.774 277.467L115.999 273.863L115.638 278.043L120.575 280.638L120.611 275.449L113.837 264.819L121.044 274.152L121.656 260.927L122.377 268.278L125.908 264.675L122.557 270.837L121.944 286.511L122.917 284.494L124.142 279.773L124.503 283.629L126.737 280.638L127.926 265.251L128.034 272.566L131.241 266.26L128.359 273.719L127.746 280.35L132.971 275.449L122.269 288.385L122.449 291.268L123.602 291.124L126.449 287.953L125.043 290.836L134.737 286.367L130.917 289.106L133.547 291.412L129.764 289.538L122.341 293.574L122.737 320.059H119.566L120.107 288.674L114.485 286.079L106.594 288.241Z" fill="#B3B3B3"/>
<path d="M301.828 255.774C301.828 268.062 293.396 272.818 282.982 272.818C272.568 272.818 264.136 268.062 264.136 255.774C264.136 243.523 272.568 215.956 282.982 215.956C293.396 215.956 301.828 243.523 301.828 255.774Z" fill="#9AED66"/>
<path opacity="0.6" d="M301.828 255.774C301.828 268.062 293.396 272.818 282.982 272.818C272.568 272.818 264.136 268.062 264.136 255.774C264.136 243.523 272.568 215.956 282.982 215.956C293.396 215.956 301.828 243.523 301.828 255.774Z" fill="white"/>
<path d="M267.523 260.855L274.37 258.261L268.136 255.126L281.144 259.558L281.36 254.981L270.73 247.342L275.667 250.081L276.892 246.477L276.532 250.657L281.468 253.252L281.541 248.063L274.73 237.433L281.937 246.766L282.586 233.541L283.27 240.892L286.802 237.289L283.486 243.45L282.874 259.125L283.847 257.107L285.072 252.387L285.396 256.243L287.666 253.252L288.856 237.865L288.964 245.18L292.171 238.874L289.252 246.333L288.639 252.964L293.9 248.063L283.198 260.999L283.378 263.882L284.531 263.738L287.342 260.567L285.973 263.45L295.666 258.981L291.81 261.72L294.441 264.026L290.693 262.152L283.27 266.188L284.027 320.384H279.955L281.036 261.287L275.379 258.693L267.523 260.855Z" fill="#B3B3B3"/>
<g opacity="0.3">
<path d="M318.872 58.4502H258.839C258.839 58.4502 260.496 57.2611 261.938 56.2881C263.343 55.3513 265.721 56.2881 266.911 56.2881C268.1 56.2881 268.1 54.8828 270.73 53.2252C273.325 51.5676 276.171 54.1621 278.297 53.6937C280.423 53.2252 279.27 49.9101 281.865 48.2525C284.459 46.5589 285.18 49.1894 287.81 47.5318C290.405 45.8742 287.81 38.9917 297.504 39.2079C307.233 39.4601 307.737 46.0904 307.737 46.0904C314.836 49.1894 311.269 52.2523 312.242 53.4414C313.179 54.6306 314.368 53.4414 316.962 54.8828C319.593 56.2881 318.872 58.4502 318.872 58.4502V58.4502Z" stroke="black" stroke-width="0.720687"/>
<path d="M65.1542 56.0359H22.0572C22.0572 56.0359 23.2463 55.1711 24.2913 54.4864C25.3003 53.8018 26.9939 54.4864 27.8587 54.4864C28.6875 54.4864 28.6875 53.4775 30.5613 52.2884C32.4351 51.0992 34.489 52.973 36.0385 52.6127C37.5519 52.2884 36.7231 49.8741 38.5969 48.6849C40.4707 47.4958 40.9752 49.3696 42.849 48.1804C44.7228 46.9913 42.849 42.0546 49.8396 42.2348C56.7943 42.3789 57.1546 47.1715 57.1546 47.1715C62.2715 49.3696 59.7131 51.6037 60.3977 52.4325C61.0824 53.2973 61.9112 52.4325 63.7849 53.4775C65.6587 54.4865 65.1542 56.0359 65.1542 56.0359V56.0359Z" stroke="black" stroke-width="0.720687"/>
<path d="M282.117 47.2796H244.677C244.677 47.2796 245.722 46.5589 246.587 45.9463C247.488 45.3697 248.965 45.9463 249.686 45.9463C250.443 45.9463 250.443 45.0815 252.064 44.0365C253.686 42.9915 255.488 44.613 256.821 44.3247C258.154 44.0365 257.398 41.9465 259.019 40.9375C260.677 39.8925 261.109 41.5141 262.731 40.4691C264.352 39.4241 262.731 35.136 268.82 35.2801C274.874 35.4603 275.162 39.6043 275.162 39.6043C279.595 41.5141 277.397 43.4239 277.973 44.1806C278.586 44.9013 279.306 44.1806 280.928 45.0815C282.586 45.9463 282.117 47.2796 282.117 47.2796V47.2796Z" stroke="black" stroke-width="0.720687"/>
</g>
<path d="M246.371 95.6016V102.484H248.749V118.015H246.371V262.188C246.371 273.647 237.074 282.944 225.579 282.944H114.089C102.63 282.944 93.3331 273.647 93.3331 262.188V35.6044C93.3331 24.1455 102.63 14.8486 114.089 14.8486H225.579C237.074 14.8486 246.371 24.1455 246.371 35.6044V69.2965H248.749V95.6016H246.371Z" fill="#707070" stroke="#054752" stroke-width="0.720687" stroke-linejoin="round"/>
<path d="M221.976 280.097H117.728C105.585 280.097 95.7474 270.224 95.7474 258.08V39.7123C95.7474 27.5687 105.585 17.6953 117.728 17.6953H221.976C234.119 17.6953 243.957 27.5687 243.957 39.7123V258.08C243.957 270.224 234.119 280.097 221.976 280.097Z" fill="#054752" stroke="#054752" stroke-width="0.720687" stroke-linejoin="round"/>
<path d="M239.849 40.3609V247.342C239.849 258.837 230.552 268.098 219.057 268.098H120.611C109.152 268.098 99.8553 258.837 99.8553 247.342V40.3609C99.8553 28.9019 109.152 19.6051 120.611 19.6051H161.762L161.834 19.7492C163.024 24.1454 165.834 26.9921 168.933 26.9921H170.735C173.834 26.9921 176.645 24.1454 177.87 19.7492L177.906 19.6051H219.057C230.552 19.6051 239.849 28.9019 239.849 40.3609Z" fill="#00AFF5" stroke="#054752" stroke-width="0.720687" stroke-linecap="round" stroke-linejoin="round"/>
<path opacity="0.5" d="M239.849 40.3609V247.342C239.849 258.837 230.552 268.098 219.057 268.098H120.611C109.152 268.098 99.8553 258.837 99.8553 247.342V40.3609C99.8553 28.9019 109.152 19.6051 120.611 19.6051H161.762L161.834 19.7492C163.024 24.1454 165.834 26.9921 168.933 26.9921H170.735C173.834 26.9921 176.645 24.1454 177.87 19.7492L177.906 19.6051H219.057C230.552 19.6051 239.849 28.9019 239.849 40.3609Z" fill="white" stroke="#054752" stroke-width="0.720687" stroke-linecap="round" stroke-linejoin="round"/>
<path d="M113.152 98.7726L103.675 95.0971L105.26 62.4861L116.323 77.7286L113.152 98.7726Z" fill="#00AFF5"/>
<path d="M141.115 114.808L116.791 102.232L119.458 80.3591L141.547 106.664L141.115 114.808Z" fill="#00AFF5"/>
<path d="M233.831 78.4493C231.02 81.296 226.48 81.5122 223.417 78.8817L202.085 60.6483C198.878 57.9097 198.517 53.045 201.292 49.838L226.336 20.9024C234.227 23.8572 239.849 31.4244 239.849 40.361V72.3595L233.831 78.4493Z" fill="#00AFF5"/>
<path d="M139.457 147.671L112.611 136.104L114.269 122.735L140.178 133.654L139.457 147.671Z" fill="#00AFF5"/>
<path d="M116.323 106.016L140.934 118.88L140.358 129.69L114.846 118.015L116.323 106.016Z" fill="#00AFF5"/>
<path d="M196.247 178.697L214.12 201.831L161.546 202.876L196.247 178.697Z" fill="#00AFF5"/>
<path fill-rule="evenodd" clip-rule="evenodd" d="M221.724 146.951C230.408 146.951 237.471 153.977 237.471 162.661C237.471 171.31 230.408 178.372 221.724 178.372C213.075 178.372 206.013 171.31 206.013 162.661C206.013 153.977 213.075 146.951 221.724 146.951ZM221.724 148.392C213.868 148.392 207.49 154.806 207.49 162.661C207.49 170.517 213.868 176.931 221.724 176.931C229.615 176.931 235.993 170.517 235.993 162.661C235.993 154.806 229.615 148.392 221.724 148.392Z" fill="white"/>
<path fill-rule="evenodd" clip-rule="evenodd" d="M239.849 126.339L189.509 155.202L239.849 214.839V217.109L197.4 166.805L99.8553 242.261V240.424L147.601 203.488L135.89 180.066L99.8553 196.75V195.128L135.241 178.769L126.737 161.725L99.8553 169.868V168.319L125.8 160.499L99.8553 143.707V141.942L127.205 159.671C127.326 159.743 127.422 159.839 127.494 159.959V159.995L141.907 155.635L145.042 105.043C145.042 104.946 145.054 104.862 145.078 104.79L99.8553 51.1712V48.9371L114.341 66.0894L120.827 60.5401C125.404 56.6484 132.286 56.9727 136.502 61.2608L160.537 85.6921L164.825 80.4671L110.233 22.3797C110.666 22.1155 111.11 21.8753 111.566 21.659L165.762 79.314L214.228 19.6051H216.138L182.086 61.477L226.12 97.151L239.849 84.8633V86.8092L197.761 124.537C197.653 124.681 197.508 124.717 197.328 124.717V124.753L181.149 125.762L201.833 146.446L239.849 124.681V126.339ZM204.535 81.5121L194.121 92.3945L212.535 109.331L225.039 98.1239L204.535 81.5121ZM161.582 86.7371L197.328 122.988L211.454 110.304L192.608 92.971C192.464 92.8269 192.356 92.6467 192.356 92.4665C192.356 92.2503 192.428 92.0702 192.572 91.926L203.382 80.5752L181.185 62.5941L161.582 86.7371ZM146.952 104.754L164.357 125.366L195.635 123.384L160.645 87.8902L146.952 104.754ZM146.015 103.601L159.636 86.8092L135.457 62.2337C131.782 58.5222 125.764 58.2339 121.764 61.6572L115.278 67.1704L146.015 103.601ZM143.385 155.166L178.626 144.5L146.412 106.34L143.385 155.166ZM179.635 145.725L143.817 156.572L153.51 170.337L187.239 154.734L179.635 145.725ZM136.574 178.156L152.177 170.949L142.34 157.004L128.142 161.292L136.574 178.156ZM165.366 189.723L153.006 172.139L137.223 179.453L148.79 202.551L165.366 189.723ZM188.176 155.887L154.339 171.526L166.519 188.822L196.427 165.688L188.176 155.887ZM200.499 147.203L179.419 126.087L179.635 125.834L165.51 126.735L188.536 154.049L200.499 147.203Z" fill="white"/>
<path fill-rule="evenodd" clip-rule="evenodd" d="M221.724 156.391C225.183 156.391 227.993 159.202 227.993 162.661C227.993 166.121 225.183 168.895 221.724 168.895C218.3 168.895 215.49 166.121 215.49 162.661C215.49 159.202 218.3 156.391 221.724 156.391ZM221.724 157.869C219.093 157.869 216.931 160.031 216.931 162.661C216.931 165.292 219.093 167.454 221.724 167.454C224.39 167.454 226.516 165.292 226.516 162.661C226.516 160.031 224.39 157.869 221.724 157.869Z" fill="white"/>
<path d="M239.849 196.57V247.342C239.849 258.837 230.552 268.098 219.057 268.098H120.611C109.152 268.098 99.8553 258.837 99.8553 247.342V196.57H239.849Z" fill="white" stroke="#054752" stroke-width="0.720687" stroke-linejoin="round"/>
<path d="M234.804 215.128C234.948 215.344 235.056 215.812 234.66 216.064C234.636 216.064 234.624 216.064 234.624 216.064H233.146H232.606C232.354 217.398 231.561 218.371 230.696 218.371C230.672 218.371 230.648 218.371 230.624 218.371C230.6 218.371 230.588 218.371 230.588 218.371H229.147C228.066 218.371 227.129 217.398 226.768 216.064H224.534C224.282 217.398 223.525 218.371 222.624 218.371C222.6 218.371 222.564 218.371 222.516 218.371H221.111C219.994 218.371 219.057 217.398 218.697 216.064H214.228H213.652C213.291 217.398 212.319 218.371 211.201 218.371H209.256C208.247 218.371 207.382 217.578 206.949 216.461H202.805C202.781 216.461 202.769 216.461 202.769 216.461L202.445 216.317C202.049 217.506 201.148 218.371 200.103 218.371H198.121C197.076 218.371 196.139 217.47 195.743 216.209H194.806L194.373 216.425C194.349 216.449 194.337 216.461 194.337 216.461H193.689C193.617 216.461 193.581 216.425 193.581 216.353V212.209C193.581 212.209 193.581 211.993 193.545 211.704C193.473 211.38 194.085 210.875 194.265 210.731C194.265 210.623 194.301 210.335 194.482 210.047C194.59 209.794 194.77 209.542 195.058 209.362C195.671 208.858 201.292 207.308 201.544 207.236C201.76 207.128 207.958 204.425 209.075 204.137C210.661 203.741 211.454 203.705 212.102 203.669C212.27 203.669 212.439 203.657 212.607 203.633C214.048 203.488 215.634 203.524 215.67 203.524C215.706 203.524 219.958 203.56 222.805 203.741C226.192 203.921 227.309 204.678 227.921 205.074C228.066 205.146 228.174 205.218 228.282 205.254C228.642 205.434 229.507 205.975 230.3 206.479C230.876 206.84 231.417 207.2 231.777 207.38C232.39 207.74 232.714 207.885 233.002 208.029C233.122 208.077 233.23 208.125 233.327 208.173C233.651 208.317 233.795 208.677 233.867 208.858C233.903 208.858 234.011 208.821 234.083 208.858C234.155 208.858 234.263 208.858 234.3 208.93C234.372 208.978 234.408 209.062 234.408 209.182C234.408 209.206 234.408 209.23 234.408 209.254C234.408 209.278 234.396 209.302 234.372 209.326C234.372 209.326 234.372 209.338 234.372 209.362C234.372 209.386 234.372 209.398 234.372 209.398C234.372 209.422 234.372 209.446 234.372 209.47C234.372 209.47 234.372 209.482 234.372 209.506C234.372 209.53 234.372 209.554 234.372 209.578C234.348 209.578 234.336 209.59 234.336 209.614C234.336 209.638 234.336 209.662 234.336 209.686C234.336 209.686 234.336 209.698 234.336 209.722C234.336 209.746 234.336 209.77 234.336 209.794C234.312 209.794 234.3 209.806 234.3 209.83C234.3 209.854 234.3 209.878 234.3 209.903C234.3 209.927 234.3 209.939 234.3 209.939C234.3 209.963 234.287 209.987 234.263 210.011C234.263 210.035 234.263 210.047 234.263 210.047C234.263 210.071 234.263 210.095 234.263 210.119C234.263 210.119 234.263 210.131 234.263 210.155C234.239 210.179 234.227 210.203 234.227 210.227C234.227 210.227 234.227 210.239 234.227 210.263C234.227 210.263 234.227 210.275 234.227 210.299C234.227 210.323 234.227 210.335 234.227 210.335C234.203 210.359 234.191 210.383 234.191 210.407C234.191 210.407 234.191 210.419 234.191 210.443C234.191 210.443 234.191 210.455 234.191 210.479C234.191 210.503 234.179 210.527 234.155 210.551C234.191 210.623 234.3 210.911 234.66 211.344C235.02 211.776 235.056 211.884 235.092 212.209C235.116 212.257 235.128 212.317 235.128 212.389C235.236 212.821 234.876 214.839 234.804 215.128Z" fill="#054752"/>
<path d="M219.561 204.677C222.048 204.497 224.462 204.461 225.723 204.894C226.948 205.29 230.444 207.452 230.192 207.74C229.975 208.029 228.39 208.353 228.39 208.353C228.39 208.353 215.886 208.353 215.454 208.353C215.057 208.353 213.436 208.101 213.4 207.957C213.328 207.848 216.21 205.939 216.21 205.939C216.21 205.939 217.724 204.822 219.561 204.677Z" fill="white"/>
<path d="M208.895 204.461C208.895 204.461 209.724 204.245 211.634 204.245C213.544 204.245 216.823 204.497 216.823 204.497C216.823 204.497 216.426 204.677 215.454 205.29C214.481 205.903 213.868 206.119 212.787 206.804C211.742 207.524 210.445 207.416 210.445 207.416H201.616L208.895 204.461Z" fill="white"/>
<path d="M134.34 207.272C134.34 210.659 130.557 211.884 130.521 214.479V214.659H134.232V215.776H129.295V214.803C129.295 211.2 133.115 210.479 133.115 207.308C133.115 206.155 132.719 205.542 131.782 205.542C130.881 205.542 130.485 206.227 130.485 207.2V208.209H129.295V207.308C129.295 205.578 130.088 204.425 131.818 204.425C133.583 204.425 134.34 205.542 134.34 207.272Z" fill="#054752"/>
<path d="M142.16 215.776H140.934L139.097 206.84V215.776H137.98V204.533H139.745L141.583 213.506L143.349 204.533H145.114V215.776H143.925V206.732L142.16 215.776Z" fill="#054752"/>
<path d="M147.637 204.533V215.776H146.412V204.533H147.637Z" fill="#054752"/>
<path d="M150.051 215.776H148.934V204.533H150.52L153.114 212.677V204.533H154.231V215.776H152.934L150.051 206.695V215.776Z" fill="#054752"/>
<path d="M122.881 210.263C122.881 214.299 119.566 217.614 115.494 217.614C111.458 217.614 108.143 214.299 108.143 210.263C108.143 206.191 111.458 202.876 115.494 202.876C117.404 202.876 119.098 203.597 120.395 204.75C121.908 206.083 122.881 208.065 122.881 210.263Z" fill="white" stroke="#054752" stroke-width="0.720687" stroke-linejoin="round"/>
<path d="M120.395 204.75L115.494 210.263V202.876C117.404 202.876 119.098 203.597 120.395 204.75Z" fill="#054752"/>
<path d="M109.404 227.199H167.168" stroke="#054752" stroke-width="0.720687" stroke-linecap="round" stroke-linejoin="round"/>
<path d="M109.404 232.028H167.168" stroke="#054752" stroke-width="0.720687" stroke-linecap="round" stroke-linejoin="round"/>
<path d="M109.404 236.892H167.168" stroke="#054752" stroke-width="0.720687" stroke-linecap="round" stroke-linejoin="round"/>
<path d="M239.849 40.3609V44.0724H99.8553V40.3609C99.8553 28.902 109.152 19.6051 120.611 19.6051H161.762L161.834 19.7492C163.024 24.1454 165.834 26.9921 168.933 26.9921H170.735C173.834 26.9921 176.645 24.1454 177.87 19.7492L177.906 19.6051H219.057C230.552 19.6051 239.849 28.902 239.849 40.3609Z" fill="white" stroke="#054752" stroke-width="0.720687" stroke-linejoin="round"/>
<path d="M169.402 22.5239C168.321 22.5239 167.456 21.6591 167.456 20.578C167.456 19.497 168.321 18.6322 169.402 18.6322C170.483 18.6322 171.347 19.497 171.347 20.578C171.347 21.6591 170.483 22.5239 169.402 22.5239Z" fill="#707070"/>
<path d="M112.287 28.0732C112.287 30.019 110.089 30.7397 110.053 32.2531V32.3612H112.215V33.0099H109.332V32.4333C109.332 30.3433 111.566 29.9109 111.566 28.0732C111.566 27.4245 111.35 27.0642 110.81 27.0642C110.269 27.0642 110.017 27.4245 110.017 28.0371V28.6137H109.332V28.0732C109.332 27.0642 109.801 26.4156 110.81 26.4156C111.819 26.4156 112.287 27.0642 112.287 28.0732Z" fill="#054752"/>
<path d="M115.855 28.0371V28.2173C115.855 28.902 115.602 29.3704 115.062 29.5506C115.638 29.7668 115.855 30.2713 115.855 30.9199V31.4244C115.855 32.4333 115.422 33.0819 114.377 33.0819C113.404 33.0819 112.936 32.4333 112.936 31.4244V30.9559H113.62V31.4604C113.62 32.073 113.837 32.3973 114.377 32.3973C114.918 32.3973 115.134 32.073 115.134 31.3883V30.8838C115.134 30.2352 114.882 29.947 114.305 29.9109H113.945V29.2623H114.341C114.846 29.2623 115.134 28.938 115.134 28.3614V28.0732C115.134 27.3885 114.918 27.0642 114.377 27.0642C113.837 27.0642 113.62 27.4246 113.62 28.0011V28.3614H112.936V28.0371C112.936 27.0642 113.404 26.4156 114.377 26.4156C115.422 26.4156 115.855 27.0642 115.855 28.0371Z" fill="#054752"/>
<path d="M117.296 28.5416V29.4425H116.575V28.5416H117.296ZM117.296 32.109V33.0099H116.611V32.109H117.296Z" fill="#054752"/>
<path d="M118.773 29.1182C118.966 28.7578 119.29 28.5776 119.746 28.5776C120.575 28.5776 120.935 29.1902 120.935 30.1271V31.4244C120.935 32.4333 120.467 33.0819 119.458 33.0819C118.485 33.0819 118.017 32.4333 118.017 31.4244V30.9919H118.701V31.4604C118.701 32.073 118.918 32.3973 119.458 32.3973C119.963 32.3973 120.215 32.073 120.215 31.4604V30.1992C120.215 29.6226 119.963 29.2623 119.458 29.2623C119.062 29.2623 118.773 29.4785 118.701 29.9469V30.0911H118.017L118.197 26.4516H120.791V27.1363H118.845L118.773 29.1182Z" fill="#054752"/>
<path fill-rule="evenodd" clip-rule="evenodd" d="M124.575 28.0371V28.1452H123.89V28.0011C123.89 27.3885 123.674 27.0642 123.134 27.0642C122.557 27.0642 122.341 27.4245 122.341 28.1092V29.5866C122.521 29.1182 122.881 28.8659 123.386 28.8659C124.215 28.8659 124.611 29.4785 124.611 30.4154V31.4244C124.611 32.4333 124.106 33.0819 123.097 33.0819C122.089 33.0819 121.584 32.4333 121.584 31.4244V28.0732C121.584 27.0642 122.052 26.4156 123.097 26.4156C124.106 26.4156 124.575 27.0282 124.575 28.0371ZM122.341 30.4875V31.4604C122.341 32.073 122.557 32.3973 123.097 32.3973C123.638 32.3973 123.89 32.073 123.89 31.4604V30.4875C123.89 29.9109 123.638 29.5506 123.097 29.5506C122.557 29.5506 122.341 29.9109 122.341 30.4875Z" fill="#054752"/>
<path d="M195.995 32.9377H194.157V28.3253H195.995V32.9377Z" fill="#054752"/>
<path d="M198.445 32.9377H196.608V27.3884H198.445V32.9377Z" fill="#054752"/>
<path d="M200.932 32.9377H199.058V26.7398H200.932V32.9377Z" fill="#054752"/>
<path d="M203.382 32.9377H201.544V25.5867H203.382V32.9377Z" fill="#054752"/>
<path fill-rule="evenodd" clip-rule="evenodd" d="M226.228 32.8296H215.165V26.0552H226.228V32.8296ZM215.778 32.217H225.615V26.6677H215.778V32.217Z" fill="#054752"/>
<path d="M222.552 31.5324H216.679V27.3164H222.552V31.5324Z" fill="#054752"/>
<path d="M227.237 30.2352H225.867V28.6496H227.237V30.2352Z" fill="#054752"/>
<path d="M211.093 31.3522C211.021 31.3522 210.949 31.3282 210.877 31.2801C208.607 29.9469 207.13 31.172 207.058 31.2441C206.913 31.3882 206.625 31.3882 206.481 31.2081C206.337 31.0279 206.373 30.7757 206.517 30.6315C206.589 30.5595 208.499 28.9019 211.31 30.5595C211.49 30.7036 211.562 30.9558 211.454 31.136C211.382 31.2801 211.238 31.3522 211.093 31.3522Z" fill="#054752"/>
<path d="M211.922 29.9469C211.85 29.9469 211.778 29.9349 211.706 29.9108C208.463 27.965 206.265 29.8388 206.229 29.8388C206.085 29.9829 205.796 29.9829 205.652 29.8027C205.508 29.6226 205.508 29.3703 205.688 29.2262C205.724 29.1902 208.355 26.956 212.138 29.1901C212.319 29.2983 212.391 29.5505 212.282 29.7667C212.21 29.8748 212.066 29.9469 211.922 29.9469Z" fill="#054752"/>
<path d="M212.679 28.3253C212.607 28.3253 212.535 28.3133 212.463 28.2893C208.355 25.8389 205.58 28.1451 205.472 28.2533C205.292 28.3974 205.04 28.3614 204.895 28.1812C204.751 28.037 204.751 27.7848 204.932 27.6046C204.968 27.6046 208.247 24.794 212.895 27.5686C213.075 27.6767 213.147 27.9289 213.039 28.1451C212.967 28.2533 212.823 28.3253 212.679 28.3253Z" fill="#054752"/>
<path d="M209.832 32.0369C209.832 32.6134 209.364 33.0818 208.823 33.0818C208.247 33.0818 207.778 32.6134 207.778 32.0369C207.778 31.4603 208.247 30.9919 208.823 30.9919C209.364 30.9919 209.832 31.4603 209.832 32.0369Z" fill="#054752"/>
<path d="M202.265 59.9275C202.373 60.1438 202.445 60.5401 202.121 60.7563C202.121 60.7563 202.109 60.7563 202.085 60.7563H200.824H200.355C200.139 61.9094 199.49 62.7382 198.698 62.7382C198.674 62.7382 198.662 62.7382 198.662 62.7382C198.638 62.7382 198.626 62.7382 198.626 62.7382H197.4C196.463 62.7382 195.635 61.9094 195.346 60.7563H193.437C193.184 61.9094 192.536 62.7382 191.779 62.7382C191.755 62.7382 191.731 62.7382 191.707 62.7382C191.707 62.7382 191.695 62.7382 191.671 62.7382H190.482C189.509 62.7382 188.716 61.9094 188.428 60.7563H184.572H184.068C183.743 61.9094 182.951 62.7382 181.978 62.7382H180.32C179.455 62.7382 178.698 62.0536 178.338 61.0806H174.735L174.446 60.9725C174.086 62.0175 173.329 62.7382 172.429 62.7382H170.735C169.834 62.7382 169.041 61.9455 168.681 60.8644H167.888L167.528 61.0806C167.504 61.0806 167.48 61.0806 167.456 61.0806H166.915C166.879 61.0806 166.843 61.0446 166.843 61.0086V57.4412C166.843 57.4412 166.843 57.261 166.807 57.0088C166.735 56.7205 167.276 56.2881 167.42 56.18C167.42 56.0719 167.456 55.8196 167.6 55.6034C167.708 55.3872 167.852 55.171 168.068 54.9908C168.645 54.5945 173.437 53.2252 173.654 53.1531C173.87 53.081 179.167 50.7748 180.14 50.5226C181.509 50.1983 182.194 50.1262 182.734 50.0902C182.878 50.0902 183.023 50.0902 183.167 50.0902C184.428 49.946 185.797 49.9821 185.797 49.9821C185.833 49.9821 189.473 50.0181 191.959 50.1622C194.842 50.3424 195.815 50.955 196.355 51.3153C196.475 51.3874 196.572 51.4354 196.644 51.4595C196.968 51.6036 197.689 52.0721 198.409 52.5405C198.878 52.8288 199.346 53.1171 199.634 53.2972C200.175 53.6215 200.463 53.7296 200.679 53.8377C200.8 53.8858 200.896 53.9338 200.968 53.9819C201.256 54.126 201.4 54.4143 201.436 54.5584C201.484 54.5584 201.544 54.5584 201.616 54.5584C201.688 54.5584 201.76 54.5584 201.833 54.6305C201.881 54.6785 201.905 54.7506 201.905 54.8467C201.905 54.8467 201.905 54.8587 201.905 54.8827C201.905 54.9068 201.905 54.9188 201.905 54.9188C201.905 54.9428 201.905 54.9548 201.905 54.9548C201.905 54.9788 201.905 54.9908 201.905 54.9908C201.905 55.0149 201.893 55.0269 201.869 55.0269C201.869 55.0509 201.869 55.0629 201.869 55.0629C201.869 55.0869 201.869 55.111 201.869 55.135C201.869 55.135 201.869 55.147 201.869 55.171C201.869 55.195 201.869 55.207 201.869 55.207C201.869 55.2311 201.869 55.2551 201.869 55.2791C201.845 55.2791 201.833 55.2911 201.833 55.3151C201.833 55.3392 201.833 55.3512 201.833 55.3512C201.833 55.3752 201.833 55.3992 201.833 55.4233C201.833 55.4233 201.833 55.4353 201.833 55.4593C201.809 55.4833 201.797 55.4953 201.797 55.4953C201.797 55.5193 201.797 55.5434 201.797 55.5674C201.797 55.5674 201.797 55.5794 201.797 55.6034C201.797 55.6034 201.797 55.6154 201.797 55.6395C201.773 55.6635 201.76 55.6755 201.76 55.6755C201.76 55.6995 201.76 55.7235 201.76 55.7476C201.76 55.7716 201.76 55.7956 201.76 55.8196C201.76 55.8196 201.76 55.8316 201.76 55.8557C201.736 55.8557 201.724 55.8677 201.724 55.8917C201.724 55.8917 201.724 55.9037 201.724 55.9277C201.724 55.9277 201.724 55.9397 201.724 55.9638C201.724 55.9878 201.712 56.0118 201.688 56.0358C201.724 56.0719 201.833 56.3241 202.121 56.6845C202.445 57.0808 202.445 57.1889 202.517 57.4412C202.517 57.4892 202.517 57.5373 202.517 57.5853C202.625 57.9817 202.301 59.7113 202.265 59.9275Z" fill="#054752"/>
<path d="M189.184 50.991C191.274 50.8108 193.364 50.7747 194.445 51.1351C195.527 51.4954 198.481 53.3692 198.301 53.6215C198.085 53.8377 196.752 54.1259 196.752 54.1259C196.752 54.1259 185.977 54.1259 185.653 54.1259C185.293 54.1259 183.887 53.9097 183.851 53.8016C183.815 53.6935 186.266 52.072 186.266 52.072C186.266 52.072 187.599 51.0991 189.184 50.991Z" fill="white"/>
<path d="M179.996 50.7747C179.996 50.7747 180.716 50.5946 182.338 50.5946C183.96 50.5946 186.77 50.8108 186.77 50.8108C186.77 50.8108 186.482 50.9909 185.653 51.4954C184.788 51.9999 184.248 52.2161 183.347 52.8287C182.41 53.4052 181.293 53.3332 181.293 53.3332H173.726L179.996 50.7747Z" fill="white"/>
<g filter="url(#filter0_i_1_2536)">
<path fill-rule="evenodd" clip-rule="evenodd" d="M136.971 157.04C135.601 158.95 127.133 162.697 127.133 162.697C127.133 162.697 124.611 158.085 125.98 156.175C127.35 154.265 130.917 152.932 133.944 153.184C137.007 153.401 138.34 155.13 136.971 157.04ZM133.692 156.788C134.232 156.031 133.692 155.346 132.466 155.238C131.241 155.13 129.836 155.671 129.295 156.427C128.755 157.22 129.295 157.905 130.485 158.013C131.71 158.085 133.115 157.545 133.692 156.788Z" fill="#84DB92"/>
</g>
<path fill-rule="evenodd" clip-rule="evenodd" d="M134.268 149.761C134.268 153.725 127.133 162.337 127.133 162.337C127.133 162.337 119.963 153.725 119.963 149.761C119.963 145.833 123.17 142.626 127.133 142.626C131.061 142.626 134.268 145.833 134.268 149.761ZM129.98 149.761C129.98 148.212 128.719 146.914 127.133 146.914C125.548 146.914 124.251 148.212 124.251 149.761C124.251 151.347 125.548 152.644 127.133 152.644C128.719 152.644 129.98 151.347 129.98 149.761Z" fill="#09B825" stroke="#09B825" stroke-width="0.720687" stroke-linecap="round" stroke-linejoin="round"/>
<path d="M180.32 62.7382L179.599 63.567" stroke="#054752" stroke-width="1.44137" stroke-linecap="round" stroke-linejoin="round"/>
<path d="M178.23 65.2246L147.637 101.691C146.664 102.808 146.664 104.466 147.565 105.583L176.825 142.23C178.158 143.924 177.401 146.446 175.347 147.095L132.575 160.68" stroke="#054752" stroke-width="1.44137" stroke-linecap="round" stroke-linejoin="round" stroke-dasharray="1.44 1.44"/>
<path d="M131.53 161.004L130.521 161.328" stroke="#054752" stroke-width="1.44137" stroke-linecap="round" stroke-linejoin="round"/>
<path d="M208.427 94.1602V114.556H169.113V107.781L153.114 99.9977L169.113 102.16V94.1602H208.427Z" fill="#054752"/>
<path fill-rule="evenodd" clip-rule="evenodd" d="M173.293 101.511C173.293 99.7816 174.122 98.6645 175.852 98.6645C177.581 98.6645 178.446 99.7816 178.446 101.511V107.313C178.446 109.006 177.581 110.159 175.852 110.159C174.122 110.159 173.293 109.006 173.293 107.313V101.511ZM174.519 107.385C174.519 108.394 174.951 109.006 175.852 109.006C176.753 109.006 177.185 108.394 177.185 107.385V101.439C177.185 100.394 176.753 99.8176 175.852 99.8176C174.951 99.8176 174.519 100.394 174.519 101.439V107.385Z" fill="white"/>
<path d="M180.825 108.466V110.015H179.635V108.466H180.825Z" fill="white"/>
<path fill-rule="evenodd" clip-rule="evenodd" d="M186.662 107.781V110.015H185.437V107.781H181.833V106.628L185.293 98.8086H186.662V106.628H187.563V107.781H186.662ZM182.987 106.628H185.437V101.151L182.987 106.628Z" fill="white"/>
<path d="M192.932 105.151L192.283 106.268V110.015H191.022V98.8086H192.283V104.214L195.274 98.8086H196.535L193.689 103.925L196.608 110.015H195.346L192.932 105.151Z" fill="white"/>
<path d="M201.724 110.015H200.535L198.662 101.079V110.015H197.58V98.8086H199.31L201.184 107.781L202.95 98.8086H204.715V110.015H203.526V101.007L201.724 110.015Z" fill="white"/>
<path d="M88.8649 308.421L90.2702 312.384C90.2702 312.384 94.4862 314.042 95.2069 315.231C95.8916 316.384 95.8916 320.384 95.8916 320.384H78.523C78.523 320.384 78.0546 316.636 78.0546 314.51C78.0546 312.384 78.0546 309.574 78.0546 309.574L88.8649 308.421Z" fill="white" stroke="#054752" stroke-width="0.720687" stroke-linecap="round" stroke-linejoin="round"/>
<path d="M78.3068 318.51H95.8555C95.8916 319.519 95.8916 320.384 95.8916 320.384H78.523C78.523 320.384 78.4149 319.591 78.3068 318.51Z" fill="white" stroke="#054752" stroke-width="0.720687" stroke-linecap="round" stroke-linejoin="round"/>
<path d="M89.0811 306.042C89.0811 306.979 89.0811 308.421 89.0811 308.421L88.8288 309.574C88.8288 309.574 83.6759 310.042 82.4868 310.294C81.3337 310.511 78.2708 309.574 78.2708 309.574C78.2708 309.574 76.8654 302.295 76.8654 301.61C76.8654 300.889 65.5867 222.226 65.5867 222.226L64.866 222.118L64.1813 222.226C64.1813 222.226 52.9026 300.889 52.9026 301.61C52.9026 302.295 51.4972 309.574 51.4972 309.574C51.4972 309.574 48.4343 310.511 47.2812 310.294C46.0921 310.042 40.9392 309.574 40.9392 309.574L40.6869 308.421C40.6869 308.421 40.6869 306.979 40.6869 306.042C40.6869 305.105 42.813 303.232 42.813 303.232L43.9661 207.885L64.866 209.038L85.7659 207.885L86.955 303.232C86.955 303.232 89.0811 305.105 89.0811 306.042Z" fill="#054752" stroke="#054752" stroke-width="0.720687" stroke-linecap="round" stroke-linejoin="round"/>
<path d="M94.9186 154.013C94.9186 154.013 101.585 157.076 103.819 158.626C106.053 160.175 105.549 165.977 106.233 169.22C106.918 172.499 107.747 174.553 106.918 175.382C106.053 176.247 104.864 177.796 104.864 177.796C104.864 177.796 105.693 186.012 106.053 192.354C106.378 198.66 102.954 200.894 100.216 202.624C97.4771 204.317 94.4142 204.678 88.7568 204.317C83.0994 203.993 79.1716 201.254 78.6671 200.029C78.1627 198.84 73.3701 185.651 75.424 178.12C77.478 170.589 84.3245 154.518 87.5676 152.788C90.8107 151.095 94.9186 154.013 94.9186 154.013Z" fill="#054752" stroke="#054752" stroke-width="0.720687" stroke-linecap="round" stroke-linejoin="round"/>
<path d="M48.3623 142.699L57.9474 137.402L70.6315 136.393L83.6399 142.014L86.883 199.02L87.0631 207.741C87.0631 207.741 79.8563 212.533 74.8835 214.911C69.9468 217.326 66.8479 217.65 66.8479 217.65L65.8389 214.407L64.4696 217.326C64.4696 217.326 58.632 215.956 53.6593 214.227C48.7226 212.533 42.0562 208.425 42.0562 208.425L43.2454 199.885L48.3623 142.699Z" fill="white" stroke="#054752" stroke-width="0.720687" stroke-linecap="round" stroke-linejoin="round"/>
<path d="M64.9741 153.653C57.3708 152.932 53.9836 143.239 53.0828 140.104L57.9474 137.402L70.6315 136.393L78.5951 139.852C76.8294 144.284 72.0368 154.338 64.9741 153.653Z" fill="white" stroke="#054752" stroke-width="0.720687" stroke-linecap="round" stroke-linejoin="round"/>
<path d="M57.9474 137.402L72.6494 136.357C72.6494 136.357 72.3972 136.861 71.4963 138.41C70.5955 139.924 67.6767 145.653 64.3615 144.392C61.0464 143.131 57.6231 138.519 57.6231 138.519C56.3259 136.861 57.9474 137.402 57.9474 137.402Z" fill="#054752" stroke="#054752" stroke-width="0.720687" stroke-linecap="round" stroke-linejoin="round"/>
<path d="M80.3608 138.591C84.4687 139.816 91.3152 140.645 91.9999 142.194C92.6845 143.744 95.0988 148.176 96.6483 152.968C98.1617 157.761 104.179 173.184 103.819 175.057C103.495 176.931 98.7022 177.796 97.1528 177.436C95.6033 177.111 90.3062 173.688 90.3062 173.688L89.9459 201.254C89.9459 201.254 88.9369 202.444 88.0721 203.128C87.2073 203.813 71.3161 210.299 70.7756 210.155C70.2711 209.975 70.6315 136.393 70.6315 136.393C70.6315 136.393 76.2528 137.402 80.3608 138.591Z" fill="#00AFF5" stroke="#054752" stroke-width="0.720687" stroke-linecap="round" stroke-linejoin="round"/>
<path d="M70.2711 135.528C70.4513 134.663 73.6223 134.591 74.1989 136.717C74.8115 138.843 78.3068 149.905 77.8023 151.275C77.2978 152.644 72.6854 148.716 72.6854 148.716L70.7756 151.419C70.7756 151.419 70.091 136.393 70.2711 135.528Z" fill="#00AFF5" stroke="#054752" stroke-width="0.720687" stroke-linecap="round" stroke-linejoin="round"/>
<path d="M84.4687 139.816C84.4687 139.816 84.3245 159.635 85.0092 164.607C85.6938 169.58 90.3062 186.516 90.3062 186.516V193.039C90.3062 193.039 82.4147 175.742 81.2256 169.4C80.0364 163.058 80.3607 138.591 80.3607 138.591L84.4687 139.816Z" fill="#054752" stroke="#054752" stroke-width="0.720687" stroke-linecap="round" stroke-linejoin="round"/>
<path d="M59.4608 138.699C59.4608 138.699 59.7491 207.741 59.7491 208.677C59.7491 209.65 58.2357 209.11 57.1186 208.569C56.0376 207.993 45.0471 204.281 42.0202 203.056C38.9933 201.831 38.5609 202.624 38.705 201.254C38.8492 199.885 38.8492 195.345 38.8492 194.66C38.8492 193.975 39.8221 179.958 39.8221 179.958C39.8221 179.958 33.3359 182.3 29.4802 180.787C25.6606 179.273 23.8589 177.472 24.2913 176.102C24.6877 174.733 31.9666 156.86 32.5071 155.202C33.0837 153.581 34.453 144.212 35.2818 143.383C36.1106 142.554 54.6683 137.906 55.7493 137.077C56.8663 136.248 57.9474 136.393 58.3798 136.393C58.7762 136.393 59.2086 136.104 59.4608 138.699Z" fill="#00AFF5" stroke="#054752" stroke-width="0.720687" stroke-linecap="round" stroke-linejoin="round"/>
<path d="M43.5336 161.04C43.7138 162.301 43.8219 163.49 43.6417 164.139C43.2454 165.941 39.8221 179.958 39.8221 179.958" stroke="#054752" stroke-width="0.720687" stroke-linecap="round" stroke-linejoin="round"/>
<path d="M42.7048 156.572C42.7048 156.572 42.885 157.364 43.1012 158.409" stroke="#054752" stroke-width="0.720687" stroke-linecap="round" stroke-linejoin="round"/>
<path d="M59.4608 138.699L59.3167 151.095L57.6951 149.293C57.6951 149.293 55.6052 150.41 54.38 151.095C53.1548 151.779 51.8936 151.347 51.8936 151.347C51.8936 151.347 52.326 150.122 53.2629 148.068C54.2358 146.014 56.0376 139.419 56.1817 138.158C56.2898 136.933 57.551 135.42 57.551 135.42C59.605 134.303 59.4608 138.699 59.4608 138.699Z" fill="#00AFF5" stroke="#054752" stroke-width="0.720687" stroke-linecap="round" stroke-linejoin="round"/>
<path d="M50.5243 113.547C49.6955 111.781 53.1548 107.385 56.4339 105.295C59.7491 103.241 66.0551 102.556 69.082 104.61C72.1089 106.7 76.1087 111.096 76.2528 113.295C76.3609 115.493 74.7394 122.231 74.7394 122.231C74.7394 122.231 75.424 122.231 75.9646 122.231C76.5051 122.231 76.7934 123.312 76.6492 125.114C76.5051 126.879 74.1628 130.195 74.1628 130.195C74.1628 130.195 74.0547 133.618 73.6223 134.591C73.226 135.564 70.091 140.32 69.2261 140.933C67.4244 142.158 65.6587 142.987 62.1994 141.618C58.7762 140.212 58.0915 137.474 56.8664 136.248C55.6052 134.987 53.8395 130.339 53.8395 130.339C53.8395 130.339 53.0107 129.906 51.8936 128.537C50.8126 127.168 51.209 125.114 51.3531 123.456C51.4972 121.799 53.6953 124.681 53.6953 124.681C53.6953 124.681 51.3531 115.348 50.5243 113.547Z" fill="white" stroke="#054752" stroke-width="0.720687" stroke-linecap="round" stroke-linejoin="round"/>
<path d="M67.0281 132.969C67.0281 132.969 66.3434 134.483 64.7939 134.158C63.2445 133.798 62.74 132.969 62.74 132.969" stroke="#054752" stroke-width="0.720687" stroke-linecap="round" stroke-linejoin="round"/>
<path d="M67.8929 135.348C67.8929 135.348 66.8479 136.393 64.9741 136.393C63.1003 136.393 62.0553 135.528 62.0553 135.528" stroke="#054752" stroke-width="0.720687" stroke-linecap="round" stroke-linejoin="round"/>
<path d="M53.6953 124.681C53.6953 124.681 53.5872 124.537 53.4071 124.357L53.6953 124.681Z" stroke="#054752" stroke-width="0.720687" stroke-linecap="round" stroke-linejoin="round"/>
<path d="M76.2528 113.295C76.3609 115.493 74.7394 122.231 74.7394 122.231C74.7394 122.231 74.7634 122.231 74.8115 122.231C74.7394 123.132 74.4872 124.789 73.7665 124.681C72.7935 124.573 73.226 122.772 73.226 122.772C73.226 122.772 72.5413 122.627 71.5684 122.339C70.5954 122.087 70.7396 119.745 70.7396 118.087C70.7396 116.43 68.9379 114.916 68.9379 114.916C68.9379 114.916 68.5415 116.862 64.83 118.772C61.1184 120.718 60.0013 121.943 58.2357 121.114C57.1186 120.609 58.0555 119.745 58.7762 119.276C57.8033 119.492 56.1817 119.42 55.6052 120.429C54.9205 121.654 55.6052 123.06 55.2088 123.997C54.7764 124.97 53.6953 124.681 53.6953 124.681C53.6953 124.681 51.3531 115.348 50.5243 113.547C49.6955 111.781 53.1548 107.385 56.4339 105.295C59.7491 103.241 66.0551 102.556 69.082 104.61C72.1089 106.7 76.1087 111.096 76.2528 113.295Z" fill="#054752" stroke="#054752" stroke-width="0.720687" stroke-linecap="round" stroke-linejoin="round"/>
<path d="M67.0281 127.564C67.0281 127.564 68.8298 129.078 71.5684 127.312" stroke="#054752" stroke-width="0.720687" stroke-linecap="round" stroke-linejoin="round"/>
<path d="M57.1186 127.564C57.1186 127.564 58.9203 129.078 61.6589 127.312" stroke="#054752" stroke-width="0.720687" stroke-linecap="round" stroke-linejoin="round"/>
<path d="M56.7222 125.51C56.7222 125.51 58.9203 124.573 61.1184 125.114" stroke="#054752" stroke-width="0.720687" stroke-linecap="round" stroke-linejoin="round"/>
<path d="M67.1722 125.114C67.1722 125.114 69.082 124.429 71.136 125.258" stroke="#054752" stroke-width="0.720687" stroke-linecap="round" stroke-linejoin="round"/>
<path d="M27.8587 175.562C27.8587 175.562 36.3628 175.021 37.624 175.021C38.8492 175.021 39.8221 177.616 40.0744 179.129C40.3626 180.643 40.5068 184.066 40.5068 184.066C40.5068 184.066 36.507 189.723 33.7683 190.696C30.9937 191.633 24.976 189.868 23.4625 188.606C21.9491 187.381 20.6879 181.76 21.5167 179.814C22.3455 177.904 24.1472 176.643 24.8318 175.958" fill="#00AFF5"/>
<path d="M27.8587 175.562C27.8587 175.562 36.3628 175.021 37.624 175.021C38.8492 175.021 39.8221 177.616 40.0744 179.129C40.3626 180.643 40.5068 184.066 40.5068 184.066C40.5068 184.066 36.507 189.723 33.7683 190.696C30.9937 191.633 24.976 189.868 23.4625 188.606C21.9491 187.381 20.6879 181.76 21.5167 179.814C22.3455 177.904 24.1472 176.643 24.8318 175.958" stroke="#054752" stroke-width="0.720687" stroke-linecap="round" stroke-linejoin="round"/>
<path d="M58.0555 157.401L61.4788 174.445L53.4791 176.211L49.2631 158.698L58.0555 157.401Z" fill="#054752" stroke="#054752" stroke-width="0.720687" stroke-linecap="round" stroke-linejoin="round"/>
<path d="M44.7588 174.877L47.101 172.535C47.101 172.535 48.074 168.823 48.6145 167.706C49.155 166.625 50.6685 164.716 50.6685 164.716L51.209 166.481C51.209 166.481 56.4339 164.139 57.2627 164.139C58.0915 164.139 58.3798 164.968 58.3798 165.4C58.3798 165.797 52.5783 168.535 52.5783 168.535L51.8936 169.508C51.8936 169.508 56.8664 167.598 57.6952 167.022C58.4879 166.481 59.4608 166.337 59.4608 166.337C59.4608 166.337 60.1455 167.454 59.8932 167.995C59.605 168.535 59.3167 169.22 59.3167 169.22C59.3167 169.22 59.4248 169.508 59.2086 170.301C58.8482 171.634 57.551 172.535 57.551 172.535C57.551 172.535 55.7493 174.733 54.7764 175.706C53.8395 176.643 50.3802 177.472 50.3802 177.472L43.93 181.616C43.93 181.616 42.9571 180.787 42.9571 178.445C42.9571 176.102 44.7588 174.877 44.7588 174.877Z" fill="white" stroke="#054752" stroke-width="0.720687" stroke-linecap="round" stroke-linejoin="round"/>
<path d="M59.4608 168.535C59.4608 168.535 53.9836 171.31 52.5783 172.247" stroke="#054752" stroke-width="0.720687" stroke-linecap="round" stroke-linejoin="round"/>
<path d="M52.7945 174.625L57.551 172.535" stroke="#054752" stroke-width="0.720687" stroke-linecap="round" stroke-linejoin="round"/>
<path d="M45.8398 173.508C45.8398 173.508 44.0742 175.706 44.2183 177.76C44.3624 179.814 45.8398 183.273 45.8398 183.273C45.8398 183.273 43.3895 184.895 42.4166 185.868C41.4437 186.841 39.2456 187.381 38.4168 185.579C37.624 183.814 36.2187 179.814 36.7952 177.472C37.3357 175.129 38.4168 174.445 38.9933 174.337C39.5338 174.193 44.903 173.652 45.8398 173.508Z" fill="#00AFF5" stroke="#054752" stroke-width="0.720687" stroke-linecap="round" stroke-linejoin="round"/>
<path d="M86.7028 168.715L85.6938 168.211L85.1533 167.526C85.1533 167.526 79.6761 165.977 79.3518 165.292C78.9915 164.607 78.8473 162.553 78.8473 162.553C78.8473 162.553 77.478 161.364 77.478 160.68C77.478 159.995 77.8023 157.256 77.8023 157.256C77.8023 157.256 77.8023 157.256 77.478 155.707C77.1177 154.157 78.6671 153.653 79.532 153.653C80.3608 153.653 83.4597 154.518 83.9642 154.518C84.4687 154.518 85.838 155.383 86.7028 156.752C87.5676 158.121 89.9459 165.292 89.9459 165.292L86.7028 168.715Z" fill="white" stroke="#054752" stroke-width="0.720687" stroke-linecap="round" stroke-linejoin="round"/>
<path d="M92.8647 168.391C92.8647 168.391 97.4771 170.949 98.8464 171.454C100.216 171.958 101.945 172.139 103.819 175.057C105.693 177.976 105.008 182.769 103.819 185.327C102.63 187.886 98.7022 188.57 96.1078 188.57C93.5493 188.57 90.9909 183.273 89.6216 181.724C88.2523 180.174 86.0182 175.742 86.0182 175.742L92.8647 168.391Z" fill="#00AFF5" stroke="#054752" stroke-width="0.720687" stroke-linecap="round" stroke-linejoin="round"/>
<path d="M94.5943 168.896L85.6938 178.12C85.6938 178.12 82.7751 174.193 82.7751 173.184C82.7751 172.139 84.1444 170.265 85.6938 168.211C87.2073 166.157 90.6306 164.283 90.6306 164.283C92.5404 165.472 94.5943 168.896 94.5943 168.896Z" fill="#00AFF5" stroke="#054752" stroke-width="0.720687" stroke-linecap="round" stroke-linejoin="round"/>
<path d="M51.4972 309.574C51.4972 309.574 51.4972 312.384 51.4972 314.51C51.4972 316.636 51.0288 320.384 51.0288 320.384H33.6602C33.6602 320.384 33.6602 316.384 34.3449 315.231C35.0656 314.042 39.2816 312.384 39.2816 312.384L40.6869 308.421L51.4972 309.574Z" fill="white" stroke="#054752" stroke-width="0.720687" stroke-linecap="round" stroke-linejoin="round"/>
<path d="M51.0288 320.384H33.6602C33.6602 320.384 33.6602 319.519 33.7323 318.51H51.245C51.1369 319.591 51.0288 320.384 51.0288 320.384Z" fill="white" stroke="#054752" stroke-width="0.720687" stroke-linecap="round" stroke-linejoin="round"/>
<path d="M241.398 311.339H213.832C213.832 311.339 214.625 298.151 219.525 292.493C224.426 286.8 231.885 286.187 237.939 289.538C244.029 292.854 244.425 307.772 244.425 307.772H291.486C291.486 307.772 295.81 290.908 305.611 289.719C315.413 288.566 317.791 305.61 317.791 305.61L316.098 311.339H241.398Z" fill="#054752" stroke="#054752" stroke-width="0.720687" stroke-linecap="round" stroke-linejoin="round"/>
<path d="M305.936 315.375V320.384H300.351C295.017 320.384 290.693 314.474 290.693 307.231C290.693 299.952 295.017 294.079 300.351 294.079H305.936V299.051C307.269 301.286 308.062 304.132 308.062 307.231C308.062 310.294 307.269 313.141 305.936 315.375Z" fill="#054752" stroke="#054752" stroke-width="0.720687" stroke-linecap="round" stroke-linejoin="round"/>
<path d="M314.116 307.231C314.116 314.51 310.62 320.384 306.368 320.384C302.08 320.384 298.585 314.51 298.585 307.231C298.585 299.988 302.08 294.115 306.368 294.115C310.62 294.115 314.116 299.988 314.116 307.231Z" fill="#054752" stroke="#054752" stroke-width="0.720687" stroke-linecap="round" stroke-linejoin="round"/>
<path d="M312.314 307.231C312.314 312.817 309.647 317.357 306.368 317.357C303.053 317.357 300.387 312.817 300.387 307.231C300.387 301.682 303.053 297.142 306.368 297.142C309.647 297.142 312.314 301.682 312.314 307.231Z" fill="white" stroke="#054752" stroke-width="0.720687" stroke-linecap="round" stroke-linejoin="round"/>
<path d="M229.435 315.303V320.384H221.724C216.282 320.384 211.886 314.366 211.886 306.979C211.886 299.556 216.282 293.574 221.724 293.574H229.435V298.655C230.768 300.925 231.597 303.808 231.597 306.979C231.597 310.114 230.768 312.997 229.435 315.303Z" fill="#054752" stroke="#054752" stroke-width="0.720687" stroke-linecap="round" stroke-linejoin="round"/>
<path d="M239.308 306.979C239.308 314.366 234.876 320.384 229.435 320.384C223.994 320.384 219.597 314.366 219.597 306.979C219.597 299.556 223.994 293.574 229.435 293.574C234.876 293.574 239.308 299.556 239.308 306.979Z" fill="#054752" stroke="#054752" stroke-width="0.720687" stroke-linecap="round" stroke-linejoin="round"/>
<path d="M237.038 306.979C237.038 312.672 233.615 317.285 229.435 317.285C225.255 317.285 221.868 312.672 221.868 306.979C221.868 301.286 225.255 296.673 229.435 296.673C233.615 296.673 237.038 301.286 237.038 306.979Z" fill="white" stroke="#054752" stroke-width="0.720687" stroke-linecap="round" stroke-linejoin="round"/>
<path d="M282.225 307.231C282.225 314.51 278.766 320.384 274.478 320.384C274.334 320.384 274.202 320.372 274.081 320.348V320.384H268.46C263.127 320.384 258.803 314.474 258.803 307.231C258.803 299.952 263.127 294.079 268.46 294.079H274.081V294.115C274.202 294.115 274.334 294.115 274.478 294.115C278.766 294.115 282.225 299.988 282.225 307.231Z" fill="#054752" stroke="#054752" stroke-width="0.720687" stroke-linecap="round" stroke-linejoin="round"/>
<path d="M195.346 306.979C195.346 314.366 190.914 320.384 185.473 320.384H177.762C172.32 320.384 167.924 314.366 167.924 306.979C167.924 299.556 172.32 293.574 177.762 293.574H185.473C190.914 293.574 195.346 299.556 195.346 306.979Z" fill="#054752" stroke="#054752" stroke-width="0.720687" stroke-linecap="round" stroke-linejoin="round"/>
<path d="M322.331 307.988C322.331 307.988 323.629 310.294 321.863 311.339H316.097C316.097 310.907 316.097 310.486 316.097 310.078C316.097 300.457 311.701 292.637 306.26 292.637C300.783 292.637 296.387 300.457 296.387 310.078C296.387 310.486 296.387 310.907 296.387 311.339H241.398C241.47 310.498 241.506 309.646 241.506 308.781C241.506 298.475 236.209 290.079 229.723 290.079C223.237 290.079 217.94 298.475 217.94 308.781C217.94 309.646 218.012 312.024 218.048 312.853H217.183H196.175L193.941 311.844H164.465L162.699 312.853H160.141V296.385C160.141 296.385 160.141 295.556 159.925 294.331C159.744 293.07 162.843 290.8 162.843 290.8C162.843 290.8 163.24 287.268 165.726 285.394C168.249 283.557 191.238 277.107 191.238 277.107C191.238 277.107 216.571 266.08 221.111 264.927C228.93 262.981 231.777 263.197 234.912 262.873C240.75 262.333 246.948 262.513 246.948 262.513C246.948 262.513 263.812 262.585 275.235 263.269C291.234 264.242 294.333 268.206 296.711 269.287C299.089 270.404 306.981 275.665 310.476 277.683C313.935 279.701 315.197 280.061 316.674 280.782C318.115 281.503 318.656 283.521 318.656 283.521C318.656 283.521 320.674 283.16 320.674 284.422C320.674 285.719 319.773 289.899 319.773 289.899C319.773 289.899 320.133 291.196 321.755 293.178C323.412 295.196 323.232 295.376 323.593 297.214C323.953 299.015 322.331 307.988 322.331 307.988Z" fill="white" stroke="#054752" stroke-width="0.720687" stroke-linecap="round" stroke-linejoin="round"/>
<path d="M262.478 266.729C272.208 265.936 281.829 265.828 286.729 267.485C291.666 269.107 305.359 277.683 304.422 278.764C303.521 279.881 297.324 281.142 297.324 281.142C297.324 281.142 247.884 281.142 246.227 281.142C244.605 281.142 238.191 280.242 238.011 279.701C237.831 279.161 249.146 271.629 249.146 271.629C249.146 271.629 255.199 267.305 262.478 266.729Z" fill="#054752" stroke="#054752" stroke-width="0.720687" stroke-linecap="round" stroke-linejoin="round"/>
<path d="M275.523 286.98H270.406C269.865 286.98 269.397 286.548 269.397 285.971C269.397 285.431 269.865 284.998 270.406 284.998H275.523C276.063 284.998 276.532 285.431 276.532 285.971C276.532 286.548 276.063 286.98 275.523 286.98Z" stroke="#054752" stroke-width="0.720687" stroke-linecap="round" stroke-linejoin="round"/>
<path d="M298.224 286.98H293.144C292.567 286.98 292.135 286.548 292.135 285.971C292.135 285.43 292.567 284.998 293.144 284.998H298.224C298.801 284.998 299.233 285.43 299.233 285.971C299.233 286.548 298.801 286.98 298.224 286.98Z" stroke="#054752" stroke-width="0.720687" stroke-linecap="round" stroke-linejoin="round"/>
<path d="M275.991 281.683L278.153 284.998L277.973 304.673L279.09 306.871L277.973 309.429L279.451 311.087" stroke="#054752" stroke-width="0.720687" stroke-linecap="round" stroke-linejoin="round"/>
<path d="M300.783 280.782L302.26 282.44L299.522 294.835L293.684 308.709C293.684 308.709 290.009 309.069 289.468 309.069C288.928 309.069 247.344 309.429 247.344 309.429C247.344 309.429 246.767 308.529 246.227 307.411C245.686 306.33 243.849 291.196 243.849 287.737C243.849 284.241 242.227 281.323 242.227 281.323" stroke="#054752" stroke-width="0.720687" stroke-linecap="round" stroke-linejoin="round"/>
<path d="M220.318 265.792C220.318 265.792 223.597 264.891 231.092 264.891C238.588 264.891 251.524 266.008 251.524 266.008C251.524 266.008 250.083 266.729 246.227 269.107C242.407 271.449 239.849 272.386 235.669 275.125C231.453 277.863 226.336 277.503 226.336 277.503H191.527L220.318 265.792Z" fill="#054752" stroke="#054752" stroke-width="0.720687" stroke-linecap="round" stroke-linejoin="round"/>
<path d="M228.534 278.98C228.534 278.98 224.895 283.16 224.174 283.521C223.417 283.881 219.093 284.494 219.093 284.494" stroke="#054752" stroke-width="0.720687" stroke-linecap="round" stroke-linejoin="round"/>
<path d="M201.833 286.836L219.093 284.494C219.093 284.494 206.805 291.953 204.968 291.953C203.166 291.953 189.725 292.385 189.725 292.385L193.112 289.467L197.076 287.413L201.833 286.836Z" fill="#666666" stroke="#054752" stroke-width="0.720687" stroke-linecap="round" stroke-linejoin="round"/>
<path d="M204.968 291.953C203.166 291.953 189.725 292.385 189.725 292.385L191.347 290.98L204.751 290.115L209.796 286.764L216.751 285.863C213.075 288.025 206.301 291.953 204.968 291.953Z" fill="white" stroke="#054752" stroke-width="0.720687" stroke-linecap="round" stroke-linejoin="round"/>
<path d="M165.762 289.106L164.861 292.061L162.843 290.8C162.843 290.8 162.807 288.746 164.285 287.304L165.762 289.106Z" fill="#666666" stroke="#054752" stroke-width="0.720687" stroke-linecap="round" stroke-linejoin="round"/>
<path d="M164.861 292.061L162.843 290.8C162.843 290.8 162.843 290.439 162.915 289.971L165.114 291.304L164.861 292.061Z" fill="white" stroke="#054752" stroke-width="0.720687" stroke-linecap="round" stroke-linejoin="round"/>
<path d="M164.969 286.295L170.519 288.205C170.519 288.205 176.609 288.53 177.293 288.53C177.978 288.53 201.833 286.836 201.833 286.836C201.833 286.836 199.779 288.205 199.202 288.421C198.662 288.674 177.077 291.016 177.077 291.016L174.122 294.295H170.951L170.05 290.584C165.762 289.466 164.285 287.304 164.285 287.304L164.969 286.295Z" fill="#054752" stroke="#054752" stroke-width="0.720687" stroke-linecap="round" stroke-linejoin="round"/>
<path d="M205.688 306.943C205.688 307.88 204.715 308.637 203.49 308.637C202.265 308.637 201.292 307.88 201.292 306.943C201.292 306.006 202.265 305.249 203.49 305.249C204.715 305.249 205.688 306.006 205.688 306.943Z" fill="#054752" stroke="#054752" stroke-width="0.720687" stroke-linecap="round" stroke-linejoin="round"/>
<path d="M319.773 289.899L314.296 286.98L315.016 284.422L318.656 283.521C319.485 283.593 320.674 283.16 320.674 284.422C320.674 285.719 319.773 289.899 319.773 289.899Z" fill="#054752" stroke="#054752" stroke-width="0.720687" stroke-linecap="round" stroke-linejoin="round"/>
<path d="M308.458 282.115C311.305 282.043 313.827 282.007 315.845 282.043" stroke="#054752" stroke-width="0.720687" stroke-linecap="round" stroke-linejoin="round"/>
<path d="M253.073 285.611C269.001 284.349 290.189 282.8 304.747 282.259" stroke="#054752" stroke-width="0.720687" stroke-linecap="round" stroke-linejoin="round"/>
<path d="M234.912 287.088C238.335 286.8 243.668 286.331 250.047 285.827" stroke="#054752" stroke-width="0.720687" stroke-linecap="round" stroke-linejoin="round"/>
<path d="M230.912 287.412C230.912 287.412 231.777 287.34 233.327 287.196" stroke="#054752" stroke-width="0.720687" stroke-linecap="round" stroke-linejoin="round"/>
<path d="M164.177 294.655H184.428L189.148 297.25L195.491 307.52L189.257 309.321H161.69L160.465 306.186L161.15 296.457L164.177 294.655Z" fill="#054752" stroke="#054752" stroke-width="0.720687" stroke-linecap="round" stroke-linejoin="round"/>
<path d="M179.671 303.592H164.285V297.142H179.671V303.592Z" fill="white"/>
<path d="M188.608 298.187H181.761" stroke="#737373" stroke-width="0.720687" stroke-linecap="round" stroke-linejoin="round"/>
<path d="M190.41 300.709H182.122" stroke="#737373" stroke-width="0.720687" stroke-linecap="round" stroke-linejoin="round"/>
<path d="M192.247 303.231H182.122" stroke="#737373" stroke-width="0.720687" stroke-linecap="round" stroke-linejoin="round"/>
<path d="M194.049 305.754H172.356" stroke="#737373" stroke-width="0.720687" stroke-linecap="round" stroke-linejoin="round"/>
<path d="M194.049 308.024H161.834" stroke="#737373" stroke-width="0.720687" stroke-linecap="round" stroke-linejoin="round"/>
<path d="M259.524 276.386C259.884 278.476 256.172 280.566 256.172 280.566C256.172 280.566 248.785 280.566 247.776 280.566C246.803 280.566 245.975 279.701 245.794 277.431C245.686 276.53 247.38 275.413 249.47 274.296H257.902C258.695 274.872 259.415 275.593 259.524 276.386Z" fill="white" stroke="#054752" stroke-width="0.720687" stroke-linecap="round" stroke-linejoin="round"/>
<path d="M245.794 277.431H256.605H245.794Z" fill="white"/>
<path d="M245.794 277.431H256.605" stroke="#054752" stroke-width="0.720687" stroke-linecap="round" stroke-linejoin="round"/>
<path d="M250.551 280.53C250.299 283.809 251.308 283.557 251.308 283.557L249.038 284.025L248.281 283.305L247.776 280.566L250.551 280.53Z" fill="#054752" stroke="#054752" stroke-width="0.720687" stroke-linecap="round" stroke-linejoin="round"/>
<path d="M192.428 297.79H217.003H192.428Z" fill="white"/>
<path d="M192.428 297.79H217.003" stroke="#054752" stroke-width="0.720687" stroke-linecap="round" stroke-linejoin="round"/>
<path d="M204.247 308.781L206.445 307.087L204.103 298.403L196.499 293.646L204.499 297.358L207.31 308.276L205.652 309.465H195.815L204.247 308.781Z" fill="#054752" stroke="#054752" stroke-width="0.720687" stroke-linecap="round" stroke-linejoin="round"/>
<path d="M1.55362 320.384H330.836" stroke="#054752" stroke-width="0.720687" stroke-linecap="round" stroke-linejoin="round"/>
<defs>
<filter id="filter0_i_1_2536" x="125.573" y="153.154" width="12.2954" height="10.2644" filterUnits="userSpaceOnUse" color-interpolation-filters="sRGB">
<feFlood flood-opacity="0" result="BackgroundImageFix"/>
<feBlend mode="normal" in="SourceGraphic" in2="BackgroundImageFix" result="shape"/>
<feColorMatrix in="SourceAlpha" type="matrix" values="0 0 0 0 0 0 0 0 0 0 0 0 0 0 0 0 0 0 127 0" result="hardAlpha"/>
<feOffset dx="0.360344" dy="0.720687"/>
<feGaussianBlur stdDeviation="0.540515"/>
<feComposite in2="hardAlpha" operator="arithmetic" k2="-1" k3="1"/>
<feColorMatrix type="matrix" values="0 0 0 0 0.271181 0 0 0 0 0.591667 0 0 0 0 0.322753 0 0 0 0.5 0"/>
<feBlend mode="normal" in2="shape" result="effect1_innerShadow_1_2536"/>
</filter>
</defs>
</svg>
